<svg version="1.1" id="Layer_1" xmlns="http://www.w3.org/2000/svg" xmlns:xlink="http://www.w3.org/1999/xlink" x="0px" y="0px"
	 width="100%" viewBox="0 0 835 198" enable-background="new 0 0 835 198" xml:space="preserve">
<path fill="#252A31" opacity="1.000000" stroke="none" 
	d="
M288.000000,1.000001 
	C369.354218,1.000000 450.708466,1.000000 532.533020,1.384515 
	C534.957703,5.404974 536.912048,9.040916 539.105042,13.120821 
	C539.105042,14.017400 538.434875,16.201033 539.229248,17.462107 
	C541.728455,21.429592 544.777893,25.050468 547.886292,29.165594 
	C550.136230,28.342388 553.950867,26.324366 552.311890,32.899101 
	C552.149414,33.551239 552.531555,34.583969 553.017456,35.111893 
	C555.555481,37.869343 558.208679,40.520756 560.003479,42.367203 
	C555.585022,47.730537 551.604004,52.562843 547.622925,57.395149 
	C547.966309,57.801701 548.309692,58.208252 548.653076,58.614803 
	C550.582886,58.614803 552.512695,58.614803 554.020752,58.614803 
	C553.268555,67.705833 546.942200,70.355431 539.537292,71.975250 
	C538.011963,72.308914 536.097351,73.413094 535.450317,74.706490 
	C533.869751,77.865768 532.926147,81.343704 531.333496,84.734810 
	C521.205505,78.686058 510.743042,80.333572 505.306183,88.812927 
	C499.584839,97.735962 502.186066,110.953163 510.710693,116.273590 
	C518.901917,121.385910 531.354980,119.266884 536.030823,111.965118 
	C532.472717,107.295128 532.472717,107.295090 527.420471,109.644363 
	C519.606445,113.277847 513.666199,110.280273 512.494995,101.540749 
	C520.417175,101.540749 528.275757,101.540749 536.189941,101.540749 
	C536.189941,98.950745 536.189941,96.973259 536.536255,95.123978 
	C539.033264,96.691582 536.710205,101.745026 541.655640,101.365799 
	C542.920227,105.446381 544.070557,109.180199 544.915955,112.938591 
	C544.407288,112.975128 544.203674,112.987106 543.666321,113.072449 
	C537.337341,117.196564 531.280640,121.160805 525.378906,125.343636 
	C523.229370,126.867088 521.173096,128.698273 519.571472,130.772903 
	C517.664001,133.243713 515.762695,134.210709 512.798950,132.822479 
	C510.110291,131.563110 508.084167,132.154938 508.067657,135.496231 
	C508.052124,138.644348 506.642853,140.352753 503.729645,141.348038 
	C502.168823,141.881287 500.831390,143.068222 499.393127,143.960159 
	C502.301666,145.294479 505.664886,144.551376 507.385773,145.901566 
	C511.351532,149.013107 506.599701,150.523315 505.848602,151.466232 
	C506.568115,158.769684 507.179169,164.972107 507.815369,171.429733 
	C506.324860,171.657532 505.215515,171.966324 504.104614,171.972229 
	C499.778992,171.995270 495.024811,171.162415 494.635468,177.742432 
	C494.608124,178.204498 493.339874,178.534256 492.736115,179.031708 
	C490.595947,180.795059 488.433472,182.539474 486.402008,184.423218 
	C485.345978,185.402496 484.621735,187.561996 483.619659,187.645096 
	C476.494598,188.235870 476.634369,195.349106 473.000000,199.000000 
	C434.645782,199.000000 396.291534,199.000000 357.478516,198.636993 
	C356.625549,196.358490 356.875854,193.812363 355.725525,192.636826 
	C350.765137,187.567825 352.092499,179.594803 358.580322,176.677139 
	C360.779266,175.688232 362.718994,174.122864 365.297302,172.491913 
	C366.332336,173.075836 368.100708,174.073456 369.823334,175.045273 
	C370.993713,173.354370 371.791473,172.110260 372.682495,170.937042 
	C373.877655,169.363403 375.144958,167.844574 376.381287,166.302216 
	C374.585297,165.921555 372.783386,165.565186 371.000397,165.131165 
	C370.763519,165.073486 370.622620,164.621460 370.091370,163.849380 
	C374.950714,159.462097 375.307251,153.147964 374.018799,147.546555 
	C372.831604,142.385406 370.534515,137.924774 375.377930,134.601715 
	C372.884888,131.935638 371.208038,129.000977 368.697113,127.776062 
	C366.151398,126.534180 362.671173,127.372948 359.807648,126.565262 
	C357.513458,125.918182 355.595642,124.036865 353.390167,122.947578 
	C351.094421,121.813713 348.653992,120.972801 346.197784,119.619766 
	C345.955902,113.920937 342.596497,111.510963 337.908173,110.771538 
	C333.810730,110.125298 329.603851,110.178352 325.502014,109.551483 
	C323.951874,109.314583 322.560699,108.037796 321.097046,107.235016 
	C322.605988,106.796127 324.125916,105.944977 325.622101,105.984879 
	C335.803436,106.256363 341.070404,101.701363 341.990601,91.683052 
	C342.068787,90.832047 342.525299,89.475143 343.099670,89.296326 
	C347.484680,87.931076 345.791840,84.890884 345.666138,82.544685 
	C338.480530,81.895897 331.739136,81.287224 324.981232,80.336105 
	C320.427979,73.738274 316.460876,66.944016 311.195526,61.377861 
	C305.845917,55.722637 298.910278,58.140583 296.566345,65.612068 
	C293.367615,65.379807 292.878174,66.862633 292.950043,69.266281 
	C293.095093,74.118370 292.993286,78.977829 292.993286,84.134010 
	C290.220367,82.852386 288.143036,81.892273 286.030396,80.529343 
	C282.545013,75.794182 279.139099,71.425636 275.628754,67.142654 
	C273.424072,64.452728 273.521698,62.696014 277.294678,62.027756 
	C278.356995,61.839596 279.407349,61.583771 281.099792,61.223450 
	C280.070221,58.747570 279.712433,56.204620 278.257294,54.792187 
	C276.203278,52.798428 274.116180,51.414078 276.317749,48.336811 
	C277.838440,46.211300 278.823547,43.215355 280.867310,42.068581 
	C283.742706,40.455154 285.251740,39.384293 284.352814,35.689308 
	C283.884857,33.765591 285.035980,31.179354 286.076752,29.222672 
	C287.498596,26.549477 289.512207,24.191017 291.593872,21.241819 
	C296.560822,24.029394 296.159485,18.515810 297.438782,16.053621 
	C297.838959,15.283457 295.118134,12.891718 293.439240,10.748586 
	C293.342346,11.162271 293.336700,10.614152 293.582306,10.224282 
	C296.903534,4.951780 296.277527,3.810502 290.091949,3.322809 
	C289.338257,3.263387 288.694641,1.808284 288.000000,1.000001 
M389.879364,89.142250 
	C392.100677,88.796936 393.254456,89.416046 393.182587,91.996742 
	C393.048218,96.820641 393.155304,101.652901 393.229767,106.480637 
	C393.386230,116.627510 399.408325,121.161736 409.006805,118.116867 
	C410.405975,117.673019 412.441437,115.534279 412.251862,114.552719 
	C411.855835,112.502426 411.615387,109.132607 407.707458,110.248260 
	C404.900299,111.049652 403.486420,109.582344 403.427704,106.976593 
	C403.297577,101.201118 403.387177,95.420692 403.387177,89.394356 
	C406.531097,89.220581 409.119751,89.077492 411.818237,88.928345 
	C411.818237,86.378128 411.818237,84.160797 411.818237,81.805771 
	C408.901917,81.647781 406.322968,81.508072 403.617401,81.361504 
	C403.411163,77.441223 403.231812,74.031204 403.035797,70.305038 
	C400.630005,70.422615 397.398895,69.850243 396.933777,70.733833 
	C395.221375,73.987083 394.425537,77.722824 393.246826,81.395836 
	C391.565399,81.659241 389.826111,81.931717 388.032562,82.212685 
	C388.032562,84.665283 388.032562,86.800270 387.529327,89.494164 
	C386.144928,90.092758 384.760498,90.691360 383.061279,90.714211 
	C378.963287,82.878235 371.951324,79.528816 363.659790,81.266823 
	C353.955475,83.300957 350.088989,89.579018 349.230042,98.805862 
	C348.377655,107.962135 353.188904,115.262840 361.216156,117.995377 
	C369.525970,120.824112 378.793579,118.333984 383.090546,112.088448 
	C381.023010,108.528610 378.975220,107.002617 374.471771,109.553207 
	C366.989197,113.791100 360.677063,110.408829 359.507874,101.819427 
	C367.620087,101.819427 375.677826,101.819427 384.065552,101.819427 
	C384.065552,98.617928 384.065552,95.982674 384.931763,93.631615 
	C388.926819,94.705757 389.103516,92.139549 389.879364,89.142250 
M447.796082,82.443672 
	C447.796082,81.016167 447.796082,79.588654 447.796082,77.814804 
	C454.146271,77.814804 459.950531,77.712097 465.748718,77.855392 
	C468.950043,77.934509 470.439911,76.734238 470.144745,73.474380 
	C470.000000,71.875595 469.965363,70.266846 469.879456,68.636093 
	C458.745209,68.636093 448.005096,68.636093 437.135132,68.636093 
	C437.135132,85.283188 437.135132,101.564018 437.135132,117.984070 
	C440.721954,117.984070 444.104004,117.984070 447.969788,117.984070 
	C447.969788,111.189117 447.969788,104.777206 447.969788,97.907066 
	C454.193878,97.907066 459.937958,97.907066 465.831421,97.907066 
	C465.831421,94.983131 465.831421,92.539268 465.831421,89.604492 
	C462.827240,89.604492 460.024780,89.604492 457.222290,89.604492 
	C454.264069,89.604492 451.305878,89.604492 447.964417,89.604492 
	C447.964417,87.815033 447.964417,86.376114 448.720184,85.331032 
	C449.369965,84.733688 450.019745,84.136353 450.669525,83.539001 
	C449.771881,83.493698 448.874207,83.448387 447.796082,82.443672 
M477.238129,81.868210 
	C477.238129,93.855515 477.238129,105.842827 477.238129,117.974304 
	C479.929291,117.974304 482.978424,117.974304 486.377655,117.974304 
	C486.377655,111.290009 486.254669,104.975731 486.414581,98.668625 
	C486.555206,93.122139 489.391083,90.408043 494.762512,90.240936 
	C495.886017,90.205978 497.011475,90.235855 498.552124,90.235855 
	C498.848846,87.159691 499.113159,84.419548 499.403656,81.408173 
	C493.595398,79.989021 489.386200,81.757393 485.916779,86.800644 
	C485.382660,84.658157 485.035767,83.266579 484.641510,81.685196 
	C482.358368,81.685196 480.206970,81.685196 477.238129,81.868210 
z"/>
<path fill="#20262C" opacity="1.000000" stroke="none" 
	d="
M287.531342,1.000001 
	C288.694641,1.808284 289.338257,3.263387 290.091949,3.322809 
	C296.277527,3.810502 296.903534,4.951780 293.582306,10.224282 
	C293.336700,10.614152 293.342346,11.162271 293.439240,10.748586 
	C295.118134,12.891718 297.838959,15.283457 297.438782,16.053621 
	C296.159485,18.515810 296.560822,24.029394 291.593872,21.241819 
	C289.512207,24.191017 287.498596,26.549477 286.076752,29.222672 
	C285.035980,31.179354 283.884857,33.765591 284.352814,35.689308 
	C285.251740,39.384293 283.742706,40.455154 280.867310,42.068581 
	C278.823547,43.215355 277.838440,46.211300 276.317749,48.336811 
	C274.116180,51.414078 276.203278,52.798428 278.257294,54.792187 
	C279.712433,56.204620 280.070221,58.747570 281.099792,61.223450 
	C279.407349,61.583771 278.356995,61.839596 277.294678,62.027756 
	C273.521698,62.696014 273.424072,64.452728 275.628754,67.142654 
	C279.139099,71.425636 282.545013,75.794182 285.656006,80.613556 
	C280.218689,80.675171 276.016266,82.636307 272.245789,85.560715 
	C271.726868,84.261391 271.530823,83.023994 270.822327,82.545486 
	C263.717957,77.747559 256.543915,73.051773 249.338791,68.405869 
	C248.715469,68.003944 247.720505,68.028046 246.914261,68.084328 
	C241.231491,68.481003 233.959579,75.349518 232.627563,81.303848 
	C230.979813,81.611839 229.710709,81.774353 228.337662,81.950180 
	C228.187531,84.462395 228.051987,86.730667 227.467804,88.999260 
	C223.747421,89.013000 220.475677,89.026436 217.320038,88.697334 
	C221.451279,78.633247 219.151611,71.400986 210.111526,69.767204 
	C201.110443,68.140465 191.747482,68.516075 182.551208,68.014145 
	C182.551208,85.449074 182.551208,101.682396 182.551208,118.138329 
	C190.571793,118.138329 198.240540,118.551346 205.846588,118.037132 
	C216.093460,117.344376 220.290955,113.062668 222.347748,102.998840 
	C224.491333,102.999519 226.205872,103.000221 228.014526,103.369385 
	C228.058197,104.491798 228.007751,105.245750 227.682587,106.057152 
	C227.133011,106.439560 226.858154,106.764519 226.583298,107.089478 
	C227.075836,107.392822 227.568359,107.696159 228.234375,108.306641 
	C228.956009,110.404366 229.504196,112.194946 229.677307,113.977806 
	C228.382965,113.638474 227.464722,113.303864 226.544113,112.975952 
	C225.264023,112.520004 223.982147,112.069099 222.701050,111.616020 
	C223.137955,112.987297 223.168549,114.773026 224.076843,115.663445 
	C230.582886,122.041443 234.901688,131.237839 245.487503,132.521286 
	C246.381744,132.629700 247.448059,133.920044 247.866470,134.903030 
	C249.702057,139.215622 251.623260,143.529510 252.955841,148.008820 
	C254.590500,153.503510 255.803574,159.137955 256.876953,164.773315 
	C257.094025,165.913010 256.177002,167.727753 255.202927,168.461853 
	C254.625870,168.896790 252.722961,168.088974 251.745193,167.383835 
	C248.083176,164.742828 244.556702,161.913895 240.744827,158.974518 
	C240.041061,160.001633 239.376450,160.586151 239.196732,161.293823 
	C237.506516,167.949295 234.754013,170.217346 228.047104,170.854004 
	C226.620361,170.989441 224.346619,171.903412 224.111588,172.862625 
	C223.629425,174.830505 223.991165,177.142639 224.520004,179.179474 
	C224.985474,180.972382 226.500961,182.497620 226.941299,184.291183 
	C228.134567,189.151474 229.002853,194.091553 230.000000,199.000000 
	C200.645767,199.000000 171.291550,199.000000 141.368744,198.646957 
	C136.926392,196.736618 133.354828,194.963547 135.266907,189.988129 
	C136.914413,188.344086 138.740051,186.471619 138.869812,184.488205 
	C139.149628,180.211594 138.177628,175.858017 138.402344,171.571823 
	C138.867996,162.689957 138.118042,154.515579 129.381729,149.807602 
	C130.349838,146.857468 131.099854,144.009430 132.254883,141.336395 
	C132.700333,140.305496 133.941727,139.383560 135.035950,138.912979 
	C138.064194,137.610626 141.189835,136.526047 144.306274,135.439362 
	C149.873856,133.497955 151.187668,128.402039 147.888336,123.285660 
	C146.397018,120.973022 145.949814,117.987099 145.384964,115.173172 
	C147.042068,114.936104 148.343094,114.832481 149.625671,114.730331 
	C149.625671,102.977829 149.625671,91.453720 149.625671,79.796158 
	C138.042648,79.796158 126.815849,79.796158 114.972809,79.796158 
	C114.972809,84.846100 114.972809,89.613396 114.525177,94.477264 
	C109.471458,94.977486 104.808807,95.059319 100.271942,95.856781 
	C92.599937,97.205330 93.389626,86.903793 87.036980,86.558487 
	C86.678253,86.538986 86.320343,85.255356 86.093391,84.519577 
	C85.952927,84.064171 86.055679,83.532104 86.058197,83.034492 
	C86.087555,77.230186 86.118622,71.425880 86.600174,65.540131 
	C91.603836,65.458672 96.156578,65.458672 100.683777,65.458672 
	C100.683777,53.290462 100.683777,41.946903 100.683777,30.474419 
	C98.227829,30.256926 96.112762,30.069620 93.996025,29.480982 
	C95.872505,23.713739 94.774704,16.762806 101.989731,14.217514 
	C102.657211,13.982045 103.376480,13.095422 103.547806,12.384835 
	C104.457428,8.612126 105.199738,4.799077 106.000000,1.000000 
	C106.444443,1.000000 106.888893,1.000000 107.750458,1.329331 
	C109.819344,3.616891 111.107178,3.457610 112.000000,1.000000 
	C170.354233,1.000000 228.708450,1.000000 287.531342,1.000001 
M280.476715,36.942738 
	C280.691864,36.103031 281.267578,34.630478 281.068817,34.517242 
	C277.227478,32.328495 273.295502,30.298824 269.382172,28.236420 
	C269.339691,28.412479 269.297241,28.588539 269.254761,28.764599 
	C267.751434,27.548269 266.248108,26.331942 264.744781,25.115604 
	C263.476471,26.797115 261.822296,28.316759 261.032684,30.199080 
	C259.921661,32.847641 258.678833,34.429783 255.333160,33.430954 
	C255.333160,30.375675 255.333160,27.473570 255.333160,24.571463 
	C254.930023,24.524696 254.526886,24.477930 254.123749,24.431164 
	C253.147903,27.812840 252.636826,31.427774 251.084732,34.520229 
	C248.886475,38.900112 252.401093,40.770248 254.500107,42.613834 
	C256.824738,44.655579 261.061035,42.396896 262.459503,39.152180 
	C263.229675,37.365273 264.189484,35.660110 265.261749,33.523682 
	C269.408325,39.124729 269.669006,39.129612 274.255768,34.845390 
	C276.253510,35.723442 278.099396,36.534740 280.476715,36.942738 
M267.674866,46.278210 
	C269.686279,45.960564 271.697662,45.642918 273.709076,45.325268 
	C272.151245,42.695381 270.827271,41.448002 269.280945,40.611874 
	C268.173889,40.013306 266.100769,39.316578 265.629944,39.801296 
	C264.494415,40.970383 263.635773,42.779118 263.527100,44.388088 
	C263.485046,45.011009 265.768646,45.791000 267.674866,46.278210 
M269.943329,24.100964 
	C270.749969,24.473572 271.556641,24.846180 272.363281,25.218784 
	C272.456055,23.624624 272.548859,22.030464 272.651703,20.263245 
	C268.373840,20.542055 264.980865,20.763191 261.587921,20.984327 
	C261.646088,21.513857 261.704254,22.043386 261.762390,22.572916 
	C264.305908,22.902304 266.849426,23.231689 269.943329,24.100964 
M253.055817,50.759209 
	C251.144104,53.203529 252.110367,54.943562 254.695282,55.577644 
	C255.824249,55.854580 257.268707,54.845501 258.569885,54.420441 
	C257.436859,53.145454 256.345917,51.828156 255.138779,50.627670 
	C254.865173,50.355568 254.188324,50.488968 253.055817,50.759209 
M249.143234,45.288898 
	C249.379990,45.811512 249.616745,46.334126 249.853500,46.856739 
	C250.332840,46.544983 250.812195,46.233223 251.291534,45.921463 
	C250.768600,45.655384 250.245682,45.389305 249.143234,45.288898 
M249.586456,52.840961 
	C248.913620,52.855442 248.240799,52.869919 247.567963,52.884399 
	C247.722687,53.322289 247.877396,53.760178 248.032104,54.198067 
	C248.606155,53.932808 249.180191,53.667549 249.586456,52.840961 
M289.648956,14.980347 
	C289.191498,15.084278 288.734070,15.188210 288.276611,15.292146 
	C288.481232,15.657323 288.685883,16.022499 288.890503,16.387672 
	C289.183990,16.092447 289.477448,15.797222 289.648956,14.980347 
M267.248047,52.538368 
	C267.058411,52.809486 266.868805,53.080605 266.679169,53.351723 
	C266.960663,53.177826 267.242157,53.003929 267.248047,52.538368 
M263.500244,56.840363 
	C263.176147,56.902252 262.852051,56.964146 262.527954,57.026043 
	C262.849762,57.099426 263.171570,57.172810 263.500244,56.840363 
z"/>
<path fill="#1D2229" opacity="1.000000" stroke="none" 
	d="
M720.000000,0.999996 
	C758.625671,1.000000 797.251343,1.000000 835.938477,1.000000 
	C835.938477,66.888985 835.938477,132.778046 835.938477,199.000000 
	C803.313171,199.000000 770.625244,199.000000 737.536438,198.589325 
	C739.850647,187.741089 730.661194,160.413330 723.796326,158.508713 
	C723.461731,161.757248 723.124329,165.032913 722.691467,169.235931 
	C720.740234,166.220047 718.807373,164.358170 718.305481,162.168320 
	C717.694031,159.500214 717.344604,155.991806 718.609192,153.882324 
	C720.016724,151.534363 720.957825,150.346725 719.608887,147.458832 
	C718.048401,144.118118 719.963257,142.636414 723.913330,143.745239 
	C723.339172,145.497986 722.850891,146.988663 722.193481,148.995850 
	C725.501221,150.018234 728.422974,151.319031 730.900330,147.783752 
	C729.902283,146.411514 728.156738,144.974625 728.412781,144.195755 
	C729.482361,140.942139 727.883545,139.216629 725.689880,137.426666 
	C725.185608,137.015182 725.105530,135.909164 725.079102,135.114471 
	C724.873108,128.931793 723.271912,127.124481 716.912231,125.585938 
	C720.526672,117.206337 717.816467,112.240692 709.191040,111.037201 
	C706.419739,110.650536 703.602417,110.563354 700.848083,110.093681 
	C698.229797,109.647217 695.666138,108.880005 693.078491,108.253822 
	C693.115601,107.736679 693.152771,107.219543 693.189880,106.702408 
	C700.302124,107.657349 706.623596,106.239220 711.796631,101.552544 
	C712.651001,104.725807 714.051880,106.046295 717.263245,105.226952 
	C719.424866,104.675423 721.818970,105.034821 724.207642,105.441711 
	C724.306274,109.929420 724.306274,113.962120 724.306274,118.081360 
	C728.108215,118.081360 731.132935,118.081360 734.290527,118.081360 
	C734.503601,115.851379 734.687927,113.922737 735.253540,112.003510 
	C738.012451,112.708885 740.390076,113.404854 742.776733,114.406677 
	C743.102295,115.836197 743.419006,116.959862 744.060425,118.214142 
	C744.581055,118.471695 744.776855,118.598648 744.983032,119.063988 
	C746.597351,124.540955 750.620911,126.477661 755.421265,124.894142 
	C757.949585,124.060097 760.836060,123.391083 763.393860,123.771156 
	C767.817444,124.428482 770.488220,123.446480 771.451111,118.563828 
	C773.451355,118.266876 775.030334,118.120834 776.809631,117.956268 
	C776.809631,109.366219 777.177795,101.211411 776.712952,93.104370 
	C776.176331,83.745293 769.346802,79.136299 760.393188,81.719322 
	C757.779724,82.473274 755.413818,84.085060 752.823120,85.358337 
	C752.252380,84.125320 751.646729,82.816895 750.892578,81.195496 
	C748.455933,81.104362 746.167664,81.326202 743.770752,81.968384 
	C743.520508,83.242554 743.378906,84.096390 742.957947,85.168747 
	C742.467651,88.267441 742.256775,91.147606 741.642090,94.006088 
	C739.101135,93.659149 736.963928,93.333893 734.700684,92.569603 
	C734.574646,88.734329 734.574646,85.338081 734.574646,81.856140 
	C730.735291,81.856140 727.726685,81.856140 724.581787,81.856140 
	C724.403076,85.146332 724.243896,88.078377 723.635498,91.015106 
	C720.244995,91.441589 717.303589,91.863380 714.231812,91.918457 
	C714.623962,90.520500 714.983398,89.350342 715.712219,88.494888 
	C716.533752,87.530716 717.687866,86.849945 718.955078,85.886063 
	C718.817200,84.480827 718.421631,83.235443 717.623901,81.928993 
	C716.149414,81.781578 715.077087,81.695229 714.026001,81.248734 
	C714.706177,78.875618 715.528625,76.899292 715.989685,74.841980 
	C716.919922,70.690704 719.220886,68.518730 723.536865,69.379028 
	C723.843567,71.681618 723.635681,74.598000 724.748108,75.245186 
	C726.890442,76.491524 729.911926,77.146431 732.308960,76.688011 
	C733.731812,76.415901 735.994385,72.932518 735.549500,71.970695 
	C734.375488,69.432518 731.930115,67.482407 729.993164,64.868073 
	C730.537476,60.948105 729.040344,58.769241 726.252563,56.540192 
	C719.523621,51.159801 718.998840,41.670078 725.373047,37.463364 
	C728.552124,35.365280 729.323486,33.281349 729.665405,29.859732 
	C730.314636,23.362221 727.446045,18.552099 721.374878,17.305883 
	C714.247131,15.842788 713.017578,11.775164 717.715271,5.717808 
	C718.762756,4.366991 719.253113,2.584009 720.000000,0.999996 
M785.852600,89.459656 
	C780.692383,99.858841 782.942200,110.836845 791.306885,116.073853 
	C799.718628,121.340324 811.407715,119.553726 816.931458,111.994087 
	C815.569580,110.428711 814.185974,108.838341 812.981201,107.453552 
	C800.747559,113.433365 793.578857,111.224472 793.914551,101.874062 
	C800.549927,101.874062 807.198914,101.816368 813.845825,101.905861 
	C816.122681,101.936516 817.556030,101.597107 817.908569,98.850731 
	C818.995117,90.386688 813.117676,82.293434 804.630554,81.210487 
	C797.116577,80.251709 790.850098,82.631248 785.852600,89.459656 
M723.567932,11.249050 
	C724.227966,11.231382 724.887939,11.213715 725.547974,11.196050 
	C725.436218,10.653214 725.324524,10.110378 725.212769,9.567563 
	C724.632385,9.932302 724.052002,10.297041 723.567932,11.249050 
z"/>
<path fill="#21262D" opacity="1.000000" stroke="none" 
	d="
M719.531372,0.999996 
	C719.253113,2.584009 718.762756,4.366991 717.715271,5.717808 
	C713.017578,11.775164 714.247131,15.842788 721.374878,17.305883 
	C727.446045,18.552099 730.314636,23.362221 729.665405,29.859732 
	C729.323486,33.281349 728.552124,35.365280 725.373047,37.463364 
	C718.998840,41.670078 719.523621,51.159801 726.252563,56.540192 
	C729.040344,58.769241 730.537476,60.948105 729.686096,65.012184 
	C727.457458,66.713509 725.538086,67.840622 723.618713,68.967743 
	C719.220886,68.518730 716.919922,70.690704 715.989685,74.841980 
	C715.528625,76.899292 714.706177,78.875618 713.594543,81.383408 
	C710.984741,81.893890 708.826904,81.882378 706.670471,81.930679 
	C701.765808,82.040512 696.599060,81.238770 692.016296,82.518005 
	C684.310974,84.668900 681.636658,93.856041 686.061768,100.346329 
	C686.775024,101.392456 687.615051,102.352173 688.519226,103.508873 
	C684.651489,106.286613 684.287109,109.898712 684.919678,113.959938 
	C681.849976,114.362221 679.158081,114.694672 676.365356,114.566490 
	C676.221558,107.139488 676.354858,100.166443 676.091370,93.208420 
	C675.753662,84.288857 669.791626,79.538887 661.055908,81.343590 
	C658.084045,81.957558 655.338501,83.667122 652.292114,84.959839 
	C651.832764,79.391449 647.097595,82.080421 643.853271,80.877762 
	C640.980286,79.031662 638.309875,77.466385 635.536987,75.521240 
	C635.434509,73.041695 635.434509,70.942009 635.434509,68.149017 
	C630.551331,68.149017 626.301514,68.149017 621.747681,67.859932 
	C616.946045,67.765289 612.448425,67.959732 607.551758,68.278236 
	C605.485413,68.395546 603.817932,68.388802 602.111145,67.986740 
	C600.812378,66.131340 599.160339,63.261650 598.369019,63.482063 
	C596.211060,64.083168 594.089050,65.728012 592.659363,67.522369 
	C592.172913,68.132973 593.382751,71.011330 594.539246,71.815392 
	C596.658386,73.288780 599.314148,73.990379 601.831299,75.473938 
	C601.854553,81.621994 601.792664,87.309883 601.335083,92.997574 
	C596.283203,93.147598 589.055176,97.308128 589.291992,100.399147 
	C589.712708,105.890221 586.787842,110.103821 584.798279,114.593536 
	C581.758789,121.452446 578.139038,121.591904 573.023071,115.346992 
	C574.177490,114.122696 575.168945,113.175964 575.984314,112.397400 
	C573.568970,107.825066 571.213684,107.276840 566.915161,109.539574 
	C559.160645,113.621483 552.720764,110.056717 552.185120,101.693283 
	C560.100342,101.693283 567.989563,101.693283 577.374146,101.693283 
	C576.072021,96.331841 574.972046,91.802711 574.039307,86.954895 
	C576.402405,83.072563 578.598389,79.508911 581.294434,75.133781 
	C577.097778,74.690491 573.868469,74.198975 570.623108,74.042358 
	C565.925781,73.815681 563.383728,75.908844 563.551147,80.971176 
	C557.153015,80.228554 551.982544,82.150215 547.088013,85.210922 
	C545.761047,81.866470 543.190552,81.119255 540.912598,82.512779 
	C539.435364,83.416489 538.348633,85.940987 538.203857,87.825111 
	C537.944702,91.196892 540.864136,90.938980 543.137512,91.433899 
	C542.576050,94.885780 542.058655,97.952408 541.541260,101.019043 
	C536.710205,101.745026 539.033264,96.691582 536.455078,94.733078 
	C534.593750,91.040443 533.159973,87.866913 531.726196,84.693375 
	C532.926147,81.343704 533.869751,77.865768 535.450317,74.706490 
	C536.097351,73.413094 538.011963,72.308914 539.537292,71.975250 
	C546.942200,70.355431 553.268555,67.705833 554.020752,58.614803 
	C552.512695,58.614803 550.582886,58.614803 548.653076,58.614803 
	C548.309692,58.208252 547.966309,57.801701 547.622925,57.395149 
	C551.604004,52.562843 555.585022,47.730537 560.003479,42.367203 
	C558.208679,40.520756 555.555481,37.869343 553.017456,35.111893 
	C552.531555,34.583969 552.149414,33.551239 552.311890,32.899101 
	C553.950867,26.324366 550.136230,28.342388 547.886292,29.165594 
	C544.777893,25.050468 541.728455,21.429592 539.229248,17.462107 
	C538.434875,16.201033 539.105042,14.017400 539.105042,13.120821 
	C536.912048,9.040916 534.957703,5.404974 533.001709,1.384515 
	C595.020874,1.000000 657.041809,1.000000 719.531372,0.999996 
M563.438843,32.868313 
	C563.787659,33.789249 564.136536,34.710186 564.485352,35.631119 
	C565.005493,35.311069 565.525696,34.991016 566.045837,34.670967 
	C565.338745,33.921383 564.631592,33.171799 563.438843,32.868313 
z"/>
<path fill="#22282E" opacity="1.000000" stroke="none" 
	d="
M230.468658,199.000000 
	C229.002853,194.091553 228.134567,189.151474 226.941299,184.291183 
	C226.500961,182.497620 224.985474,180.972382 224.520004,179.179474 
	C223.991165,177.142639 223.629425,174.830505 224.111588,172.862625 
	C224.346619,171.903412 226.620361,170.989441 228.047104,170.854004 
	C234.754013,170.217346 237.506516,167.949295 239.196732,161.293823 
	C239.376450,160.586151 240.041061,160.001633 240.744827,158.974518 
	C244.556702,161.913895 248.083176,164.742828 251.745193,167.383835 
	C252.722961,168.088974 254.625870,168.896790 255.202927,168.461853 
	C256.177002,167.727753 257.094025,165.913010 256.876953,164.773315 
	C255.803574,159.137955 254.590500,153.503510 252.955841,148.008820 
	C251.623260,143.529510 249.702057,139.215622 247.866470,134.903030 
	C247.448059,133.920044 246.381744,132.629700 245.487503,132.521286 
	C234.901688,131.237839 230.582886,122.041443 224.076843,115.663445 
	C223.168549,114.773026 223.137955,112.987297 222.701050,111.616020 
	C223.982147,112.069099 225.264023,112.520004 226.544113,112.975952 
	C227.464722,113.303864 228.382965,113.638474 229.967651,114.155586 
	C236.594284,120.505089 242.441315,120.599770 251.829300,114.473099 
	C252.921982,120.702339 257.227570,117.918549 261.306427,117.949608 
	C261.306427,112.402252 261.306427,107.103477 261.725555,101.848167 
	C264.030975,101.595657 265.917297,101.299683 267.901642,101.411217 
	C269.075653,113.403748 272.642578,117.447792 283.202576,119.556931 
	C282.573730,121.821686 282.014771,123.664055 281.467285,125.468536 
	C290.165375,131.139908 300.683380,127.618271 302.299408,118.506149 
	C302.773987,118.229393 302.977051,118.142502 303.531708,117.915192 
	C303.772247,114.507965 303.661163,111.241158 303.445770,107.655800 
	C303.413055,106.901947 303.484650,106.466660 303.953888,106.024475 
	C307.110229,106.399185 309.868927,106.780777 312.555023,107.566727 
	C312.799500,110.552490 313.116547,113.133881 313.462830,115.952950 
	C307.653595,119.553215 307.929138,124.936722 312.641113,128.994370 
	C314.048004,130.205902 316.019501,130.761749 317.393616,131.821228 
	C313.030457,135.134293 313.820374,138.868271 316.706146,141.786118 
	C318.909210,144.013641 322.165192,145.281616 325.116913,146.612350 
	C325.654358,146.854645 327.101746,145.458237 327.925873,144.618835 
	C331.363861,141.117096 329.976074,136.739227 330.307831,132.443451 
	C334.025055,131.283249 337.406494,130.297226 340.925232,129.690521 
	C343.477356,136.172592 349.561523,139.418625 358.324402,139.279373 
	C360.095245,131.290451 358.332520,128.415543 350.704010,126.921165 
	C348.592682,126.507568 346.464844,126.178314 344.475281,125.450188 
	C345.162964,123.394615 345.719879,121.699203 346.276825,120.003799 
	C348.653992,120.972801 351.094421,121.813713 353.390167,122.947578 
	C355.595642,124.036865 357.513458,125.918182 359.807648,126.565262 
	C362.671173,127.372948 366.151398,126.534180 368.697113,127.776062 
	C371.208038,129.000977 372.884888,131.935638 375.377930,134.601715 
	C370.534515,137.924774 372.831604,142.385406 374.018799,147.546555 
	C375.307251,153.147964 374.950714,159.462097 370.091370,163.849380 
	C370.622620,164.621460 370.763519,165.073486 371.000397,165.131165 
	C372.783386,165.565186 374.585297,165.921555 376.381287,166.302216 
	C375.144958,167.844574 373.877655,169.363403 372.682495,170.937042 
	C371.791473,172.110260 370.993713,173.354370 369.823334,175.045273 
	C368.100708,174.073456 366.332336,173.075836 365.297302,172.491913 
	C362.718994,174.122864 360.779266,175.688232 358.580322,176.677139 
	C352.092499,179.594803 350.765137,187.567825 355.725525,192.636826 
	C356.875854,193.812363 356.625549,196.358490 357.009857,198.636993 
	C314.979095,199.000000 272.958221,199.000000 230.468658,199.000000 
M353.175262,171.014130 
	C352.227905,171.189606 350.839508,171.050308 350.436829,171.614532 
	C349.837250,172.454590 349.933777,173.791428 349.734100,174.916870 
	C350.841461,174.759705 352.132385,174.910812 353.019104,174.382996 
	C355.042023,173.178802 355.042145,172.711151 353.175262,171.014130 
z"/>
<path fill="#21262D" opacity="1.000000" stroke="none" 
	d="
M675.000000,199.000000 
	C638.312439,199.000000 601.624878,199.000000 564.470703,198.608490 
	C566.661743,193.364792 569.335571,188.521301 571.966980,183.654877 
	C572.708374,182.283752 573.351074,180.857010 573.993958,179.435364 
	C575.053040,177.093155 575.854553,174.601562 577.168884,172.415985 
	C578.825806,169.660736 582.730530,166.869324 582.384094,164.592911 
	C581.712219,160.178192 583.670471,158.897079 587.206665,157.807358 
	C585.010925,154.632568 584.203125,152.067062 588.628662,150.717484 
	C589.311218,150.509323 589.654602,148.868149 589.964050,147.832687 
	C590.430603,146.271591 590.261536,144.273758 591.192566,143.147675 
	C593.388855,140.491119 593.088318,138.368027 591.438354,135.527573 
	C587.770813,129.213974 594.415405,116.889977 601.835205,116.442070 
	C602.514709,117.351860 603.081482,118.226463 603.655151,118.230995 
	C614.088989,118.313354 624.523682,118.291084 635.275818,118.291084 
	C635.454346,115.625275 635.606934,113.348267 636.117310,111.006012 
	C638.613403,109.629433 640.751770,108.318115 642.975220,107.457237 
	C643.060364,111.195763 643.060364,114.483841 643.060364,117.975204 
	C646.602051,117.975204 649.694763,117.975204 653.116272,117.975204 
	C653.116272,110.614899 653.126770,103.491631 653.112488,96.368416 
	C653.103333,91.825027 655.450745,89.215706 659.873535,89.146202 
	C664.247620,89.077446 666.163208,91.597755 666.233459,95.726845 
	C666.340759,102.035606 666.577698,108.352531 666.357239,114.651917 
	C666.254089,117.600182 667.562012,118.402954 670.033691,119.005569 
	C671.533936,124.105583 667.993408,130.365372 675.240967,133.733643 
	C672.969482,134.833710 671.241333,134.977722 669.585754,135.404007 
	C668.258545,135.745758 666.806885,136.200119 665.852173,137.082397 
	C665.500183,137.407669 666.511414,139.081085 666.725891,140.173950 
	C667.116516,142.164719 668.106079,144.413010 667.556091,146.144058 
	C665.802368,151.663300 663.456238,156.994308 661.716797,161.433762 
	C666.236145,161.856476 671.800293,162.376923 677.364441,162.897354 
	C677.314026,163.482910 677.263611,164.068466 677.213196,164.654022 
	C675.273987,164.654022 673.334778,164.654022 669.907104,164.654022 
	C673.010559,167.267227 675.684998,168.623398 676.945068,170.798798 
	C678.658936,173.757584 679.981812,175.651764 683.781250,174.210327 
	C684.731384,173.849838 686.411377,174.993896 687.539124,175.763962 
	C687.898865,176.009583 687.750427,177.900940 687.505554,177.976730 
	C686.345947,178.335587 685.074280,178.388489 683.838928,178.423828 
	C683.192017,178.442337 682.446106,177.941467 681.906677,178.132324 
	C680.943665,178.473083 680.103271,179.160263 679.211609,179.702606 
	C679.906006,180.447510 680.476257,181.426559 681.326599,181.877258 
	C682.356812,182.423309 683.623718,182.522751 684.788208,182.815460 
	C683.887207,184.277603 682.809265,185.079163 682.009888,184.860779 
	C676.631836,183.391617 676.265808,186.841553 675.978821,190.629898 
	C675.766846,193.428589 675.334290,196.210571 675.000000,199.000000 
z"/>
<path fill="#1C2228" opacity="1.000000" stroke="none" 
	d="
M68.000000,199.000000 
	C45.706608,199.000000 23.413214,199.000000 1.000000,199.000000 
	C1.000000,139.979156 1.000000,80.958237 1.403772,21.466219 
	C2.786994,20.847761 3.814732,20.843033 4.738230,20.530394 
	C11.897621,18.106667 11.831265,18.123016 15.504198,24.478628 
	C16.207035,25.694813 17.590946,26.517399 18.431610,27.306572 
	C18.245800,29.143744 17.383150,31.328236 18.070864,32.064404 
	C20.124775,34.263012 21.049101,36.626118 18.656488,38.421585 
	C17.326067,39.419960 14.631745,38.600826 12.453720,38.600826 
	C12.203288,41.526680 15.627524,48.120232 17.906435,47.633694 
	C23.376881,46.465782 23.888540,49.804535 25.383272,53.725170 
	C26.847057,57.564644 26.023933,63.788429 32.895668,64.458664 
	C32.942844,69.283234 32.911072,73.648643 32.704468,78.136894 
	C32.307400,78.453018 32.162231,78.692932 32.070847,79.178177 
	C32.047569,79.376877 32.371723,79.611443 31.900780,79.586929 
	C28.962236,79.415665 26.494637,79.268906 24.019264,78.769699 
	C23.797754,75.323853 23.507694,72.153297 19.373962,72.078781 
	C14.364558,71.988487 13.720650,75.943680 13.155443,79.550812 
	C12.619183,82.973213 14.317780,84.914330 17.979881,85.461945 
	C18.070333,95.459991 18.070333,104.997162 18.070333,115.163506 
	C23.540516,115.163506 28.304777,115.163506 33.070660,115.617386 
	C33.053200,124.848869 33.261108,133.635300 32.920834,142.400436 
	C32.746456,146.892212 33.931946,148.558838 38.692039,148.395981 
	C47.778236,148.085098 56.886593,148.421921 66.025642,148.987091 
	C66.065536,154.199265 66.065536,158.914246 66.065536,164.259415 
	C75.887566,164.259415 84.942772,164.259415 93.981140,164.623016 
	C93.224068,169.564499 90.822731,172.523712 86.465813,174.576630 
	C84.450539,175.526199 82.881950,178.414093 82.093719,180.754242 
	C80.785530,184.638107 79.665726,188.671463 75.234428,189.623886 
	C69.878891,190.774979 68.042160,194.049072 68.000000,199.000000 
M8.679541,34.065414 
	C7.525839,34.481987 6.372138,34.898556 5.218437,35.315125 
	C5.573916,35.885334 5.929395,36.455540 6.284874,37.025745 
	C7.120294,36.250481 7.955713,35.475220 8.679541,34.065414 
z"/>
<path fill="#22282E" opacity="1.000000" stroke="none" 
	d="
M601.725708,116.001900 
	C594.415405,116.889977 587.770813,129.213974 591.438354,135.527573 
	C593.088318,138.368027 593.388855,140.491119 591.192566,143.147675 
	C590.261536,144.273758 590.430603,146.271591 589.964050,147.832687 
	C589.654602,148.868149 589.311218,150.509323 588.628662,150.717484 
	C584.203125,152.067062 585.010925,154.632568 587.206665,157.807358 
	C583.670471,158.897079 581.712219,160.178192 582.384094,164.592911 
	C582.730530,166.869324 578.825806,169.660736 577.168884,172.415985 
	C575.854553,174.601562 575.053040,177.093155 573.993958,179.435364 
	C573.351074,180.857010 572.708374,182.283752 571.966980,183.654877 
	C569.335571,188.521301 566.661743,193.364792 564.002014,198.608490 
	C533.979126,199.000000 503.958221,199.000000 473.468658,199.000000 
	C476.634369,195.349106 476.494598,188.235870 483.619659,187.645096 
	C484.621735,187.561996 485.345978,185.402496 486.402008,184.423218 
	C488.433472,182.539474 490.595947,180.795059 492.736115,179.031708 
	C493.339874,178.534256 494.608124,178.204498 494.635468,177.742432 
	C495.024811,171.162415 499.778992,171.995270 504.104614,171.972229 
	C505.215515,171.966324 506.324860,171.657532 507.815369,171.429733 
	C507.179169,164.972107 506.568115,158.769684 505.848602,151.466232 
	C506.599701,150.523315 511.351532,149.013107 507.385773,145.901566 
	C505.664886,144.551376 502.301666,145.294479 499.393127,143.960159 
	C500.831390,143.068222 502.168823,141.881287 503.729645,141.348038 
	C506.642853,140.352753 508.052124,138.644348 508.067657,135.496231 
	C508.084167,132.154938 510.110291,131.563110 512.798950,132.822479 
	C515.762695,134.210709 517.664001,133.243713 519.571472,130.772903 
	C521.173096,128.698273 523.229370,126.867088 525.378906,125.343636 
	C531.280640,121.160805 537.337341,117.196564 543.666016,113.480293 
	C544.163940,117.081543 543.514282,119.556953 539.665466,120.525108 
	C538.351440,120.855652 537.516602,123.090904 536.462769,124.455872 
	C538.283264,125.286064 540.049377,126.304939 541.951233,126.852837 
	C542.703674,127.069626 543.763916,126.253571 544.673706,125.882584 
	C548.553406,124.300545 551.401794,125.541153 551.894775,129.603012 
	C552.365723,133.484299 554.201538,133.289688 557.030701,132.340424 
	C560.067932,131.321335 564.667542,131.499130 565.899902,129.499557 
	C567.225159,127.349236 565.427734,123.277184 565.004456,120.042099 
	C564.961670,119.715012 564.999268,119.377426 565.310059,118.848610 
	C568.033813,117.643188 570.447021,116.633873 572.860229,115.624557 
	C578.139038,121.591904 581.758789,121.452446 584.798279,114.593536 
	C586.787842,110.103821 589.712708,105.890221 589.291992,100.399147 
	C589.055176,97.308128 596.283203,93.147598 601.421448,93.419083 
	C601.841431,95.556313 601.779297,97.271835 601.334351,98.987625 
	C598.328186,98.891716 595.826050,99.499168 596.580444,102.715332 
	C597.267395,105.643456 595.250977,111.002747 601.806519,110.434830 
	C601.835022,112.571899 601.780396,114.286896 601.725708,116.001900 
M575.383423,152.003220 
	C574.144104,152.171204 572.904846,152.339203 571.665527,152.507187 
	C571.673828,152.921036 571.682129,153.334885 571.690430,153.748734 
	C573.368042,154.102432 575.034973,154.599289 576.729492,154.724838 
	C577.255493,154.763809 577.856140,153.795410 578.422607,153.288193 
	C577.663574,152.863068 576.904541,152.437958 575.383423,152.003220 
M571.145386,121.485992 
	C571.119812,120.960609 571.094238,120.435219 571.068604,119.909836 
	C570.794617,119.994293 570.520691,120.078751 570.246704,120.163216 
	C570.385254,120.590012 570.523804,121.016808 571.145386,121.485992 
M568.461670,143.248062 
	C568.190491,143.058426 567.919373,142.868790 567.648193,142.679153 
	C567.822144,142.960663 567.996033,143.242172 568.461670,143.248062 
z"/>
<path fill="#1D232A" opacity="1.000000" stroke="none" 
	d="
M68.468658,199.000000 
	C68.042160,194.049072 69.878891,190.774979 75.234428,189.623886 
	C79.665726,188.671463 80.785530,184.638107 82.093719,180.754242 
	C82.881950,178.414093 84.450539,175.526199 86.465813,174.576630 
	C90.822731,172.523712 93.224068,169.564499 94.408760,164.494537 
	C96.762665,164.002426 98.672127,164.002426 100.635406,164.002426 
	C100.635406,151.943085 100.635406,140.629211 100.635406,128.740433 
	C96.545647,128.740433 92.781090,128.740433 88.964943,128.428528 
	C88.014542,127.073410 87.115730,126.030212 86.150589,124.527443 
	C86.132874,119.716782 86.181496,115.365700 86.557068,110.892258 
	C87.198502,109.714584 87.512985,108.659279 88.016434,107.330032 
	C90.147758,104.718819 92.090126,102.381531 94.479675,99.957138 
	C98.635506,99.675316 102.344147,99.480598 106.459183,99.334137 
	C109.247917,99.652763 111.630249,99.923141 114.116325,100.355057 
	C114.383377,100.719849 114.582588,100.877846 114.908165,101.448807 
	C114.998627,106.154343 114.998627,110.401642 114.998627,115.306633 
	C125.508011,115.306633 135.268463,115.306633 145.028900,115.306633 
	C145.949814,117.987099 146.397018,120.973022 147.888336,123.285660 
	C151.187668,128.402039 149.873856,133.497955 144.306274,135.439362 
	C141.189835,136.526047 138.064194,137.610626 135.035950,138.912979 
	C133.941727,139.383560 132.700333,140.305496 132.254883,141.336395 
	C131.099854,144.009430 130.349838,146.857468 129.381729,149.807602 
	C138.118042,154.515579 138.867996,162.689957 138.402344,171.571823 
	C138.177628,175.858017 139.149628,180.211594 138.869812,184.488205 
	C138.740051,186.471619 136.914413,188.344086 135.266907,189.988129 
	C133.354828,194.963547 136.926392,196.736618 140.900085,198.646957 
	C116.979103,199.000000 92.958214,199.000000 68.468658,199.000000 
z"/>
<path fill="#1D232A" opacity="1.000000" stroke="none" 
	d="
M675.468628,199.000000 
	C675.334290,196.210571 675.766846,193.428589 675.978821,190.629898 
	C676.265808,186.841553 676.631836,183.391617 682.009888,184.860779 
	C682.809265,185.079163 683.887207,184.277603 684.788208,182.815460 
	C683.623718,182.522751 682.356812,182.423309 681.326599,181.877258 
	C680.476257,181.426559 679.906006,180.447510 679.211609,179.702606 
	C680.103271,179.160263 680.943665,178.473083 681.906677,178.132324 
	C682.446106,177.941467 683.192017,178.442337 683.838928,178.423828 
	C685.074280,178.388489 686.345947,178.335587 687.505554,177.976730 
	C687.750427,177.900940 687.898865,176.009583 687.539124,175.763962 
	C686.411377,174.993896 684.731384,173.849838 683.781250,174.210327 
	C679.981812,175.651764 678.658936,173.757584 676.945068,170.798798 
	C675.684998,168.623398 673.010559,167.267227 669.907104,164.654022 
	C673.334778,164.654022 675.273987,164.654022 677.213196,164.654022 
	C677.263611,164.068466 677.314026,163.482910 677.364441,162.897354 
	C671.800293,162.376923 666.236145,161.856476 661.716797,161.433762 
	C663.456238,156.994308 665.802368,151.663300 667.556091,146.144058 
	C668.106079,144.413010 667.116516,142.164719 666.725891,140.173950 
	C666.511414,139.081085 665.500183,137.407669 665.852173,137.082397 
	C666.806885,136.200119 668.258545,135.745758 669.585754,135.404007 
	C671.241333,134.977722 672.969482,134.833710 675.240967,133.733643 
	C667.993408,130.365372 671.533936,124.105583 670.399170,118.864975 
	C671.484192,118.410080 672.249207,118.502327 673.050537,118.994446 
	C675.032227,122.737206 676.882263,126.140999 678.962769,129.397614 
	C680.020447,131.053131 682.175720,132.265503 682.626648,133.993500 
	C683.408691,136.990005 684.778870,138.489883 687.794495,137.917068 
	C691.013977,137.305542 694.666199,137.030777 695.413818,132.384567 
	C699.199524,132.241730 702.533203,132.186859 705.913208,132.542328 
	C708.255066,137.584747 709.561523,137.922882 715.277954,134.620178 
	C716.705078,133.795639 718.037415,132.180557 718.513245,130.649170 
	C718.699402,130.049957 716.410156,128.681625 715.371582,127.388000 
	C715.939575,126.721916 716.384338,126.331436 716.829102,125.940948 
	C723.271912,127.124481 724.873108,128.931793 725.079102,135.114471 
	C725.105530,135.909164 725.185608,137.015182 725.689880,137.426666 
	C727.883545,139.216629 729.482361,140.942139 728.412781,144.195755 
	C728.156738,144.974625 729.902283,146.411514 730.900330,147.783752 
	C728.422974,151.319031 725.501221,150.018234 722.193481,148.995850 
	C722.850891,146.988663 723.339172,145.497986 723.913330,143.745239 
	C719.963257,142.636414 718.048401,144.118118 719.608887,147.458832 
	C720.957825,150.346725 720.016724,151.534363 718.609192,153.882324 
	C717.344604,155.991806 717.694031,159.500214 718.305481,162.168320 
	C718.807373,164.358170 720.740234,166.220047 722.691467,169.235931 
	C723.124329,165.032913 723.461731,161.757248 723.796326,158.508713 
	C730.661194,160.413330 739.850647,187.741089 737.067749,198.589325 
	C716.645752,199.000000 696.291565,199.000000 675.468628,199.000000 
M700.784607,140.039093 
	C701.408447,140.612503 702.032349,141.185913 702.656189,141.759293 
	C702.989563,141.265533 703.322998,140.771774 703.656433,140.278015 
	C702.857849,140.044693 702.059204,139.811371 700.784607,140.039093 
z"/>
<path fill="#1E2228" opacity="1.000000" stroke="none" 
	d="
M32.816727,63.999512 
	C26.023933,63.788429 26.847057,57.564644 25.383272,53.725170 
	C23.888540,49.804535 23.376881,46.465782 17.906435,47.633694 
	C15.627524,48.120232 12.203288,41.526680 12.453720,38.600826 
	C14.631745,38.600826 17.326067,39.419960 18.656488,38.421585 
	C21.049101,36.626118 20.124775,34.263012 18.070864,32.064404 
	C17.383150,31.328236 18.245800,29.143744 18.431610,27.306572 
	C17.590946,26.517399 16.207035,25.694813 15.504198,24.478628 
	C11.831265,18.123016 11.897621,18.106667 4.738230,20.530394 
	C3.814732,20.843033 2.786994,20.847761 1.403772,20.997562 
	C1.000000,14.356750 1.000000,7.713501 1.000000,1.000000 
	C35.687531,1.000000 70.375107,1.000000 105.531342,1.000000 
	C105.199738,4.799077 104.457428,8.612126 103.547806,12.384835 
	C103.376480,13.095422 102.657211,13.982045 101.989731,14.217514 
	C94.774704,16.762806 95.872505,23.713739 93.545197,29.618286 
	C86.064659,30.071432 79.033264,29.985941 72.003387,29.489796 
	C72.104187,26.362688 71.740501,23.584202 68.218338,24.147018 
	C65.890038,24.519062 62.086830,25.869284 61.874912,27.236023 
	C61.372875,30.473852 60.909275,34.832714 66.022324,36.445419 
	C66.093651,39.906208 66.071701,42.923004 65.580505,46.008339 
	C55.970318,46.055523 46.827541,46.132256 37.689369,45.961926 
	C34.289768,45.898563 32.852772,47.026630 32.976482,50.551525 
	C33.133549,55.026810 32.888428,59.516201 32.816727,63.999512 
z"/>
<path fill="#1E2228" opacity="1.000000" stroke="none" 
	d="
M111.600006,1.000000 
	C111.107178,3.457610 109.819344,3.616891 108.083794,1.329331 
	C109.066673,1.000000 110.133339,1.000000 111.600006,1.000000 
z"/>
<path fill="#F0F1F1" opacity="1.000000" stroke="none" 
	d="
M340.787903,129.311218 
	C337.406494,130.297226 334.025055,131.283249 329.884918,132.335205 
	C325.328247,132.140076 321.530273,131.879044 317.732330,131.618011 
	C316.019501,130.761749 314.048004,130.205902 312.641113,128.994370 
	C307.929138,124.936722 307.653595,119.553215 313.462830,115.952950 
	C313.116547,113.133881 312.799500,110.552490 312.771637,107.340279 
	C314.069489,105.466263 315.078094,104.223061 316.045349,103.030838 
	C309.642365,95.432800 310.011169,89.941391 317.518555,83.011902 
	C320.251068,82.198997 322.624420,81.438766 324.997742,80.678543 
	C331.739136,81.287224 338.480530,81.895897 345.666138,82.544685 
	C345.791840,84.890884 347.484680,87.931076 343.099670,89.296326 
	C342.525299,89.475143 342.068787,90.832047 341.990601,91.683052 
	C341.070404,101.701363 335.803436,106.256363 325.622101,105.984879 
	C324.125916,105.944977 322.605988,106.796127 321.097046,107.235016 
	C322.560699,108.037796 323.951874,109.314583 325.502014,109.551483 
	C329.603851,110.178352 333.810730,110.125298 337.908173,110.771538 
	C342.596497,111.510963 345.955902,113.920937 346.197784,119.619766 
	C345.719879,121.699203 345.162964,123.394615 344.246155,125.608185 
	C342.853516,127.187973 341.820709,128.249588 340.787903,129.311218 
M322.833923,117.169357 
	C321.526093,118.335609 319.170441,119.504486 319.173340,120.667465 
	C319.177063,122.151276 320.964081,124.767700 322.196747,124.900047 
	C326.031311,125.311768 330.005890,125.032799 333.837006,124.442986 
	C334.826385,124.290672 336.059082,122.030571 336.095856,120.708534 
	C336.119415,119.862999 334.259583,118.427376 333.059753,118.190643 
	C329.990173,117.585014 326.817474,117.502014 322.833923,117.169357 
M325.738586,87.820717 
	C324.150757,89.284630 321.697449,90.487526 321.160400,92.268318 
	C320.133209,95.674507 321.745453,98.460213 325.548676,99.300819 
	C329.299805,100.129913 332.381317,98.120911 332.982117,94.583969 
	C333.651031,90.646248 331.715393,88.585976 325.738586,87.820717 
z"/>
<path fill="#F4F5F6" opacity="1.000000" stroke="none" 
	d="
M303.556244,106.031372 
	C303.484650,106.466660 303.413055,106.901947 303.328430,108.099648 
	C303.270294,111.926575 303.225189,114.991096 303.180084,118.055618 
	C302.977051,118.142502 302.773987,118.229393 301.877869,118.362869 
	C298.536621,117.548195 295.888489,116.686943 292.662079,115.637627 
	C290.249512,116.536125 286.760986,117.835335 283.272491,119.134544 
	C272.642578,117.447792 269.075653,113.403748 267.989746,100.990402 
	C269.430115,95.433006 270.880463,90.703926 272.330811,85.974854 
	C276.016266,82.636307 280.218689,80.675171 285.691315,81.016365 
	C288.143036,81.892273 290.220367,82.852386 292.993286,84.134010 
	C292.993286,78.977829 293.095093,74.118370 292.950043,69.266281 
	C292.878174,66.862633 293.367615,65.379807 296.981812,65.749138 
	C299.574829,65.827286 301.323914,65.901146 303.120544,66.436691 
	C303.317841,70.607628 303.467682,74.316879 303.503601,78.386101 
	C303.484589,79.485077 303.579437,80.224083 303.540222,81.416595 
	C303.456238,89.923866 303.506226,97.977615 303.556244,106.031372 
M293.447693,99.197563 
	C293.317108,95.468124 294.388885,90.747406 289.390472,89.728569 
	C286.763153,89.193039 283.056366,90.144920 280.933746,91.817223 
	C277.587738,94.453384 277.490631,103.355713 279.894684,107.322105 
	C281.783142,110.437828 284.562775,111.308258 288.028503,110.607796 
	C294.270935,109.346115 293.609619,104.581520 293.447693,99.197563 
z"/>
<path fill="#F0F1F1" opacity="1.000000" stroke="none" 
	d="
M447.964417,84.937202 
	C447.964417,86.376114 447.964417,87.815033 447.964417,89.604492 
	C451.305878,89.604492 454.264069,89.604492 457.222290,89.604492 
	C460.024780,89.604492 462.827240,89.604492 465.831421,89.604492 
	C465.831421,92.539268 465.831421,94.983131 465.831421,97.907066 
	C459.937958,97.907066 454.193878,97.907066 447.969788,97.907066 
	C447.969788,104.777206 447.969788,111.189117 447.969788,117.984070 
	C444.104004,117.984070 440.721954,117.984070 437.135132,117.984070 
	C437.135132,101.564018 437.135132,85.283188 437.135132,68.636093 
	C448.005096,68.636093 458.745209,68.636093 469.879456,68.636093 
	C469.965363,70.266846 470.000000,71.875595 470.144745,73.474380 
	C470.439911,76.734238 468.950043,77.934509 465.748718,77.855392 
	C459.950531,77.712097 454.146271,77.814804 447.796082,77.814804 
	C447.796082,79.588654 447.796082,81.016167 447.830078,83.063309 
	C447.897552,84.101028 447.931000,84.519112 447.964417,84.937202 
z"/>
<path fill="#F0F1F1" opacity="1.000000" stroke="none" 
	d="
M384.065552,93.347427 
	C384.065552,95.982674 384.065552,98.617928 384.065552,101.819427 
	C375.677826,101.819427 367.620087,101.819427 359.507874,101.819427 
	C360.677063,110.408829 366.989197,113.791100 374.471771,109.553207 
	C378.975220,107.002617 381.023010,108.528610 383.090546,112.088448 
	C378.793579,118.333984 369.525970,120.824112 361.216156,117.995377 
	C353.188904,115.262840 348.377655,107.962135 349.230042,98.805862 
	C350.088989,89.579018 353.955475,83.300957 363.659790,81.266823 
	C371.951324,79.528816 378.963287,82.878235 383.188934,91.225571 
	C383.566254,92.273758 383.815887,92.810593 384.065552,93.347427 
M359.701569,93.779198 
	C360.123688,94.338020 360.533508,95.371231 360.969818,95.382545 
	C365.537598,95.500954 370.109589,95.455643 374.809113,95.455643 
	C374.818542,91.107529 372.781036,89.033653 369.331940,88.400131 
	C365.166748,87.635071 361.882782,89.048492 359.701569,93.779198 
z"/>
<path fill="#F0F1F1" opacity="1.000000" stroke="none" 
	d="
M573.023071,115.346992 
	C570.447021,116.633873 568.033813,117.643188 564.854553,118.779617 
	C557.011292,119.390175 550.276550,118.795494 545.220947,112.914017 
	C544.070557,109.180199 542.920227,105.446381 541.655579,101.365799 
	C542.058655,97.952408 542.576050,94.885780 543.394104,91.249374 
	C544.878845,88.981003 546.062927,87.282417 547.246948,85.583839 
	C551.982544,82.150215 557.153015,80.228554 563.842651,81.173080 
	C567.677795,83.306702 570.774963,85.290138 573.872070,87.273575 
	C574.972046,91.802711 576.072021,96.331841 577.374146,101.693283 
	C567.989563,101.693283 560.100342,101.693283 552.185120,101.693283 
	C552.720764,110.056717 559.160645,113.621483 566.915161,109.539574 
	C571.213684,107.276840 573.568970,107.825066 575.984314,112.397400 
	C575.168945,113.175964 574.177490,114.122696 573.023071,115.346992 
M566.413513,91.466263 
	C564.048889,88.053459 560.557983,87.341652 557.188293,88.895187 
	C554.936401,89.933357 553.367432,92.452789 551.492859,94.309357 
	C551.858826,94.725136 552.224792,95.140907 552.590759,95.556686 
	C556.570557,95.556686 560.553162,95.464378 564.529114,95.588066 
	C567.336731,95.675400 567.592102,94.341461 566.413513,91.466263 
z"/>
<path fill="#F4F5F6" opacity="1.000000" stroke="none" 
	d="
M531.333496,84.734818 
	C533.159973,87.866913 534.593750,91.040443 536.108765,94.604874 
	C536.189941,96.973259 536.189941,98.950745 536.189941,101.540749 
	C528.275757,101.540749 520.417175,101.540749 512.494995,101.540749 
	C513.666199,110.280273 519.606445,113.277847 527.420471,109.644363 
	C532.472717,107.295090 532.472717,107.295128 536.030823,111.965118 
	C531.354980,119.266884 518.901917,121.385910 510.710693,116.273590 
	C502.186066,110.953163 499.584839,97.735962 505.306183,88.812927 
	C510.743042,80.333572 521.205505,78.686058 531.333496,84.734818 
M522.341309,95.431427 
	C524.106750,95.431427 525.872131,95.431427 527.782715,95.431427 
	C526.053650,88.589752 520.835144,86.135193 515.949463,89.546783 
	C514.494934,90.562439 513.580444,92.351440 512.418457,93.786087 
	C514.090332,94.324516 515.732666,95.010887 517.443787,95.352692 
	C518.720215,95.607651 520.085510,95.417267 522.341309,95.431427 
z"/>
<path fill="#F3F4F4" opacity="1.000000" stroke="none" 
	d="
M388.032562,88.935257 
	C388.032562,86.800270 388.032562,84.665283 388.032562,82.212685 
	C389.826111,81.931717 391.565399,81.659241 393.246826,81.395836 
	C394.425537,77.722824 395.221375,73.987083 396.933777,70.733833 
	C397.398895,69.850243 400.630005,70.422615 403.035797,70.305038 
	C403.231812,74.031204 403.411163,77.441223 403.617401,81.361504 
	C406.322968,81.508072 408.901917,81.647781 411.818237,81.805771 
	C411.818237,84.160797 411.818237,86.378128 411.818237,88.928345 
	C409.119751,89.077492 406.531097,89.220581 403.387177,89.394356 
	C403.387177,95.420692 403.297577,101.201118 403.427704,106.976593 
	C403.486420,109.582344 404.900299,111.049652 407.707458,110.248260 
	C411.615387,109.132607 411.855835,112.502426 412.251862,114.552719 
	C412.441437,115.534279 410.405975,117.673019 409.006805,118.116867 
	C399.408325,121.161736 393.386230,116.627510 393.229767,106.480637 
	C393.155304,101.652901 393.048218,96.820641 393.182587,91.996742 
	C393.254456,89.416046 392.100677,88.796936 389.225494,89.087448 
	C388.391937,89.000175 388.212250,88.967720 388.032562,88.935257 
z"/>
<path fill="#F1F2F3" opacity="1.000000" stroke="none" 
	d="
M477.646851,81.776703 
	C480.206970,81.685196 482.358368,81.685196 484.641510,81.685196 
	C485.035767,83.266579 485.382660,84.658157 485.916779,86.800644 
	C489.386200,81.757393 493.595398,79.989021 499.403656,81.408173 
	C499.113159,84.419548 498.848846,87.159691 498.552124,90.235855 
	C497.011475,90.235855 495.886017,90.205978 494.762512,90.240936 
	C489.391083,90.408043 486.555206,93.122139 486.414581,98.668625 
	C486.254669,104.975731 486.377655,111.290009 486.377655,117.974304 
	C482.978424,117.974304 479.929291,117.974304 477.238129,117.974304 
	C477.238129,105.842827 477.238129,93.855515 477.646851,81.776703 
z"/>
<path fill="#22282E" opacity="1.000000" stroke="none" 
	d="
M303.073029,65.975006 
	C301.323914,65.901146 299.574829,65.827286 297.410217,65.616348 
	C298.910278,58.140583 305.845917,55.722637 311.195526,61.377861 
	C316.460876,66.944016 320.427979,73.738274 324.981232,80.336105 
	C322.624420,81.438766 320.251068,82.198997 317.156921,82.940102 
	C312.657532,79.169746 307.984344,81.249817 303.674255,80.963081 
	C303.579437,80.224083 303.484589,79.485077 303.812012,78.190582 
	C304.869690,73.646568 306.748230,69.534241 303.073029,65.975006 
z"/>
<path fill="#21262D" opacity="1.000000" stroke="none" 
	d="
M544.915955,112.938583 
	C550.276550,118.795494 557.011292,119.390175 564.544067,118.975716 
	C564.999268,119.377426 564.961670,119.715012 565.004456,120.042099 
	C565.427734,123.277184 567.225159,127.349236 565.899902,129.499557 
	C564.667542,131.499130 560.067932,131.321335 557.030701,132.340424 
	C554.201538,133.289688 552.365723,133.484299 551.894775,129.603012 
	C551.401794,125.541153 548.553406,124.300545 544.673706,125.882584 
	C543.763916,126.253571 542.703674,127.069626 541.951233,126.852837 
	C540.049377,126.304939 538.283264,125.286064 536.462769,124.455872 
	C537.516602,123.090904 538.351440,120.855652 539.665466,120.525108 
	C543.514282,119.556953 544.163940,117.081543 543.999634,113.406929 
	C544.203674,112.987106 544.407288,112.975128 544.915955,112.938583 
z"/>
<path fill="#363B41" opacity="1.000000" stroke="none" 
	d="
M387.780945,89.214706 
	C388.212250,88.967720 388.391937,89.000175 388.800354,89.183289 
	C389.103516,92.139549 388.926819,94.705757 384.498657,93.489517 
	C383.815887,92.810593 383.566254,92.273758 383.346344,91.513443 
	C384.760498,90.691360 386.144928,90.092758 387.780945,89.214706 
z"/>
<path fill="#363B41" opacity="1.000000" stroke="none" 
	d="
M448.342316,85.134117 
	C447.931000,84.519112 447.897552,84.101028 447.920349,83.543015 
	C448.874207,83.448387 449.771881,83.493698 450.669525,83.539001 
	C450.019745,84.136353 449.369965,84.733688 448.342316,85.134117 
z"/>
<path fill="#F1F2F3" opacity="1.000000" stroke="none" 
	d="
M221.918701,102.998863 
	C220.290955,113.062668 216.093460,117.344376 205.846588,118.037132 
	C198.240540,118.551346 190.571793,118.138329 182.551208,118.138329 
	C182.551208,101.682396 182.551208,85.449074 182.551208,68.014145 
	C191.747482,68.516075 201.110443,68.140465 210.111526,69.767204 
	C219.151611,71.400986 221.451279,78.633247 216.922882,88.944824 
	C215.594131,90.411064 214.778625,91.287300 213.963135,92.163536 
	C214.541611,92.061569 215.120071,91.959610 215.698547,91.857643 
	C217.771927,95.571381 219.845322,99.285126 221.918701,102.998863 
M204.756729,109.852272 
	C208.999756,109.026421 211.232681,106.509109 210.709396,102.145027 
	C210.180740,97.736259 206.801086,96.736824 203.088669,96.580490 
	C199.814957,96.442619 196.530823,96.551628 193.194611,96.551628 
	C193.194611,101.259003 193.194611,105.474678 193.194611,109.966766 
	C196.991608,109.966766 200.445145,109.966766 204.756729,109.852272 
M193.680161,76.975471 
	C193.364349,80.921890 193.048538,84.868309 192.739258,88.732994 
	C197.170563,88.732994 200.834915,89.438629 203.995895,88.481590 
	C206.057404,87.857437 208.240616,85.046997 208.842453,82.805885 
	C209.711914,79.568169 207.050659,77.596695 204.005005,77.172295 
	C200.923447,76.742882 197.757431,76.919411 193.680161,76.975471 
z"/>
<path fill="#F9FAFA" opacity="1.000000" stroke="none" 
	d="
M145.384964,115.173172 
	C135.268463,115.306633 125.508011,115.306633 114.998627,115.306633 
	C114.998627,110.401642 114.998627,106.154343 114.988907,101.209930 
	C114.936958,100.350090 114.894730,100.187370 114.923325,99.619003 
	C114.987030,97.602463 114.979919,95.991570 114.972809,94.380684 
	C114.972809,89.613396 114.972809,84.846100 114.972809,79.796158 
	C126.815849,79.796158 138.042648,79.796158 149.625671,79.796158 
	C149.625671,91.453720 149.625671,102.977829 149.625671,114.730331 
	C148.343094,114.832481 147.042068,114.936104 145.384964,115.173172 
z"/>
<path fill="#F8F9F9" opacity="1.000000" stroke="none" 
	d="
M72.001877,29.900450 
	C79.033264,29.985941 86.064659,30.071432 93.546875,30.019619 
	C96.112762,30.069620 98.227829,30.256926 100.683777,30.474419 
	C100.683777,41.946903 100.683777,53.290462 100.683777,65.458672 
	C96.156578,65.458672 91.603836,65.458672 86.191650,65.418594 
	C83.901596,65.444313 82.470993,65.510109 80.558205,65.523804 
	C75.566086,65.471695 71.056160,65.471695 66.028275,65.471695 
	C66.028275,60.020313 66.028275,55.444881 66.120667,50.467121 
	C66.158623,48.689793 66.104187,47.314796 66.049751,45.939800 
	C66.071701,42.923004 66.093651,39.906208 66.118820,36.039036 
	C64.955406,29.949553 68.677818,30.146461 72.001877,29.900450 
z"/>
<path fill="#F4F5F6" opacity="1.000000" stroke="none" 
	d="
M261.306427,101.804703 
	C261.306427,107.103477 261.306427,112.402252 261.306427,117.949608 
	C257.227570,117.918549 252.921982,120.702339 251.829300,114.473099 
	C242.441315,120.599770 236.594284,120.505089 230.342712,114.163307 
	C229.504196,112.194946 228.956009,110.404366 228.306610,107.972801 
	C228.122696,106.887779 228.039993,106.443741 227.957306,105.999702 
	C228.007751,105.245750 228.058197,104.491798 228.104156,102.912125 
	C228.038574,97.723915 227.977509,93.361427 227.916428,88.998947 
	C228.051987,86.730667 228.187531,84.462395 228.337662,81.950180 
	C229.710709,81.774353 230.979813,81.611839 233.023087,81.453064 
	C235.190445,81.610268 236.583633,81.763748 238.194550,81.941208 
	C238.194550,89.751305 238.119980,97.054192 238.223907,104.354546 
	C238.281754,108.418816 240.147995,111.209648 244.609161,110.788826 
	C248.563828,110.415787 251.449310,108.865929 251.249924,103.911034 
	C250.958344,96.665054 251.174911,89.398621 251.174911,82.036880 
	C254.758240,82.036880 257.786896,82.036880 261.306427,82.036880 
	C261.306427,88.881989 261.306427,95.343346 261.306427,101.804703 
z"/>
<path fill="#252A31" opacity="1.000000" stroke="none" 
	d="
M261.725555,101.848167 
	C261.306427,95.343346 261.306427,88.881989 261.306427,82.036880 
	C257.786896,82.036880 254.758240,82.036880 251.174911,82.036880 
	C251.174911,89.398621 250.958344,96.665054 251.249924,103.911034 
	C251.449310,108.865929 248.563828,110.415787 244.609161,110.788826 
	C240.147995,111.209648 238.281754,108.418816 238.223907,104.354546 
	C238.119980,97.054192 238.194550,89.751305 238.194550,81.941208 
	C236.583633,81.763748 235.190445,81.610268 233.401718,81.307587 
	C233.959579,75.349518 241.231491,68.481003 246.914261,68.084328 
	C247.720505,68.028046 248.715469,68.003944 249.338791,68.405869 
	C256.543915,73.051773 263.717957,77.747559 270.822327,82.545486 
	C271.530823,83.023994 271.726868,84.261391 272.245789,85.560715 
	C270.880463,90.703926 269.430115,95.433006 267.891693,100.582901 
	C265.917297,101.299683 264.030975,101.595657 261.725555,101.848167 
z"/>
<path fill="#5CD1DE" opacity="1.000000" stroke="none" 
	d="
M81.040390,65.575912 
	C82.470993,65.510109 83.901596,65.444313 85.740723,65.500046 
	C86.118622,71.425880 86.087555,77.230186 86.058197,83.034492 
	C86.055679,83.532104 85.952927,84.064171 86.093391,84.519577 
	C86.320343,85.255356 86.678253,86.538986 87.036980,86.558487 
	C93.389626,86.903793 92.599937,97.205330 100.271942,95.856781 
	C104.808807,95.059319 109.471458,94.977486 114.525177,94.477264 
	C114.979919,95.991570 114.987030,97.602463 114.709618,99.642006 
	C114.425102,100.070663 114.012581,100.193520 114.012581,100.193520 
	C111.630249,99.923141 109.247917,99.652763 106.158478,99.048431 
	C101.568695,98.501793 97.466011,96.399948 94.032494,100.044243 
	C92.090126,102.381531 90.147758,104.718819 87.648010,107.397911 
	C86.803787,108.831345 86.516945,109.922981 86.230118,111.014610 
	C86.181496,115.365700 86.132874,119.716782 86.067665,124.903351 
	C86.070663,126.761795 86.090248,127.784760 85.703308,128.881622 
	C83.926537,128.916901 82.556290,128.878296 81.194977,128.387466 
	C81.202240,122.323692 81.288757,116.709702 81.133041,111.102432 
	C81.096931,109.802490 80.495331,108.328537 79.701340,107.276100 
	C77.596497,104.486145 75.244141,101.882919 72.993248,98.772995 
	C72.997902,97.188583 72.999565,96.036591 73.204086,94.614624 
	C74.438026,92.678322 75.101906,90.094063 76.565384,89.508606 
	C82.140030,87.278526 81.355133,82.813408 81.262299,78.436592 
	C81.171371,74.150063 81.113029,69.862831 81.040390,65.575912 
z"/>
<path fill="#252A31" opacity="1.000000" stroke="none" 
	d="
M280.210999,37.144386 
	C278.099396,36.534740 276.253510,35.723442 274.255768,34.845390 
	C269.669006,39.129612 269.408325,39.124729 265.261749,33.523682 
	C264.189484,35.660110 263.229675,37.365273 262.459503,39.152180 
	C261.061035,42.396896 256.824738,44.655579 254.500107,42.613834 
	C252.401093,40.770248 248.886475,38.900112 251.084732,34.520229 
	C252.636826,31.427774 253.147903,27.812840 254.123749,24.431164 
	C254.526886,24.477930 254.930023,24.524696 255.333160,24.571463 
	C255.333160,27.473570 255.333160,30.375675 255.333160,33.430954 
	C258.678833,34.429783 259.921661,32.847641 261.032684,30.199080 
	C261.822296,28.316759 263.476471,26.797115 264.744781,25.115608 
	C266.248108,26.331942 267.751434,27.548269 269.254761,28.764599 
	C269.297241,28.588539 269.339691,28.412479 269.382172,28.236420 
	C273.295502,30.298824 277.227478,32.328495 281.068817,34.517242 
	C281.267578,34.630478 280.691864,36.103031 280.210999,37.144386 
z"/>
<path fill="#22282E" opacity="1.000000" stroke="none" 
	d="
M227.467804,88.999260 
	C227.977509,93.361427 228.038574,97.723915 228.010040,102.543655 
	C226.205872,103.000221 224.491333,102.999519 222.347748,102.998840 
	C219.845322,99.285126 217.771927,95.571381 215.698547,91.857643 
	C215.120071,91.959610 214.541611,92.061569 213.963135,92.163536 
	C214.778625,91.287300 215.594131,90.411064 216.806778,89.287354 
	C220.475677,89.026436 223.747421,89.013000 227.467804,88.999260 
z"/>
<path fill="#252A31" opacity="1.000000" stroke="none" 
	d="
M267.333801,46.388821 
	C265.768646,45.791000 263.485046,45.011009 263.527100,44.388088 
	C263.635773,42.779118 264.494415,40.970383 265.629944,39.801296 
	C266.100769,39.316578 268.173889,40.013306 269.280945,40.611874 
	C270.827271,41.448002 272.151245,42.695381 273.709076,45.325268 
	C271.697662,45.642918 269.686279,45.960564 267.333801,46.388821 
z"/>
<path fill="#252A31" opacity="1.000000" stroke="none" 
	d="
M269.668152,23.831020 
	C266.849426,23.231689 264.305908,22.902304 261.762390,22.572916 
	C261.704254,22.043386 261.646088,21.513857 261.587921,20.984327 
	C264.980865,20.763191 268.373840,20.542055 272.651703,20.263245 
	C272.548859,22.030464 272.456055,23.624624 272.363281,25.218784 
	C271.556641,24.846180 270.749969,24.473572 269.668152,23.831020 
z"/>
<path fill="#252A31" opacity="1.000000" stroke="none" 
	d="
M253.376450,50.597458 
	C254.188324,50.488968 254.865173,50.355568 255.138779,50.627670 
	C256.345917,51.828156 257.436859,53.145454 258.569885,54.420441 
	C257.268707,54.845501 255.824249,55.854580 254.695282,55.577644 
	C252.110367,54.943562 251.144104,53.203529 253.376450,50.597458 
z"/>
<path fill="#252A31" opacity="1.000000" stroke="none" 
	d="
M249.432983,45.206062 
	C250.245682,45.389305 250.768600,45.655384 251.291534,45.921463 
	C250.812195,46.233223 250.332840,46.544983 249.853500,46.856735 
	C249.616745,46.334126 249.379990,45.811512 249.432983,45.206062 
z"/>
<path fill="#252A31" opacity="1.000000" stroke="none" 
	d="
M249.670349,53.121628 
	C249.180191,53.667549 248.606155,53.932808 248.032104,54.198067 
	C247.877396,53.760178 247.722687,53.322289 247.567963,52.884399 
	C248.240799,52.869919 248.913620,52.855442 249.670349,53.121628 
z"/>
<path fill="#252A31" opacity="1.000000" stroke="none" 
	d="
M289.709961,15.241171 
	C289.477448,15.797222 289.183990,16.092447 288.890503,16.387674 
	C288.685883,16.022499 288.481232,15.657323 288.276611,15.292144 
	C288.734070,15.188210 289.191498,15.084278 289.709961,15.241171 
z"/>
<path fill="#252A31" opacity="1.000000" stroke="none" 
	d="
M267.385864,52.684204 
	C267.242157,53.003929 266.960663,53.177826 266.679169,53.351723 
	C266.868805,53.080605 267.058411,52.809486 267.385864,52.684204 
z"/>
<path fill="#252A31" opacity="1.000000" stroke="none" 
	d="
M263.496826,57.043274 
	C263.171570,57.172810 262.849762,57.099426 262.527954,57.026039 
	C262.852051,56.964146 263.176147,56.902252 263.496826,57.043274 
z"/>
<path fill="#22282E" opacity="1.000000" stroke="none" 
	d="
M227.682587,106.057152 
	C228.039993,106.443741 228.122696,106.887779 228.133148,107.665665 
	C227.568359,107.696159 227.075836,107.392822 226.583298,107.089478 
	C226.858154,106.764519 227.133011,106.439560 227.682587,106.057152 
z"/>
<path fill="#EFF0F0" opacity="1.000000" stroke="none" 
	d="
M705.866882,132.131973 
	C702.533203,132.186859 699.199524,132.241730 695.068481,132.220978 
	C693.122009,131.984467 691.776978,132.150955 690.859863,131.602234 
	C687.933960,129.851624 684.206055,128.422287 682.586365,125.770424 
	C680.640198,122.583916 680.800537,118.381966 685.372375,116.198174 
	C685.651306,116.064972 685.336182,114.688232 685.297485,113.890106 
	C684.287109,109.898712 684.651489,106.286613 688.519226,103.508873 
	C687.615051,102.352173 686.775024,101.392456 686.061768,100.346329 
	C681.636658,93.856041 684.310974,84.668900 692.016296,82.518005 
	C696.599060,81.238770 701.765808,82.040512 706.670471,81.930679 
	C708.826904,81.882378 710.984741,81.893890 713.573364,81.743561 
	C715.077087,81.695229 716.149414,81.781578 717.661743,82.341194 
	C718.300232,83.891617 718.498779,84.968773 718.697327,86.045914 
	C717.687866,86.849945 716.533752,87.530716 715.712219,88.494888 
	C714.983398,89.350342 714.623962,90.520500 714.158325,92.258827 
	C713.383545,95.692612 712.552002,98.419312 711.720459,101.146011 
	C706.623596,106.239220 700.302124,107.657349 693.189880,106.702408 
	C693.152771,107.219543 693.115601,107.736679 693.078491,108.253822 
	C695.666138,108.880005 698.229797,109.647217 700.848083,110.093681 
	C703.602417,110.563354 706.419739,110.650536 709.191040,111.037201 
	C717.816467,112.240692 720.526672,117.206337 716.912231,125.585945 
	C716.384338,126.331436 715.939575,126.721916 715.079468,127.509689 
	C711.731689,129.315308 708.799316,130.723648 705.866882,132.131973 
M692.166138,123.370918 
	C696.323059,126.639198 700.974548,126.051018 705.471985,124.629662 
	C706.841431,124.196869 707.712036,122.185570 708.811157,120.897232 
	C707.569519,119.961189 706.436035,118.468994 705.064209,118.202095 
	C701.978638,117.601776 698.778564,117.513641 695.618408,117.393394 
	C691.805481,117.248299 690.374512,119.017296 692.166138,123.370918 
M695.608643,88.831474 
	C692.697205,91.244713 691.887024,94.561302 694.449402,97.065269 
	C696.053711,98.633080 699.953613,99.610306 701.759583,98.712524 
	C703.520569,97.837067 705.078064,94.032539 704.691223,91.879341 
	C703.880432,87.366837 700.000427,87.512527 695.608643,88.831474 
z"/>
<path fill="#EFF0F0" opacity="1.000000" stroke="none" 
	d="
M786.040771,89.142212 
	C790.850098,82.631248 797.116577,80.251709 804.630554,81.210487 
	C813.117676,82.293434 818.995117,90.386688 817.908569,98.850731 
	C817.556030,101.597107 816.122681,101.936516 813.845825,101.905861 
	C807.198914,101.816368 800.549927,101.874062 793.914551,101.874062 
	C793.578857,111.224472 800.747559,113.433365 812.981201,107.453552 
	C814.185974,108.838341 815.569580,110.428711 816.931458,111.994087 
	C811.407715,119.553726 799.718628,121.340324 791.306885,116.073853 
	C782.942200,110.836845 780.692383,99.858841 786.040771,89.142212 
M800.733643,88.360275 
	C796.663330,88.817009 794.242126,90.975761 793.315308,95.274658 
	C798.709351,95.274658 803.658936,95.274658 808.759766,95.274658 
	C808.317566,90.387054 805.704102,88.497452 800.733643,88.360275 
z"/>
<path fill="#F3F4F4" opacity="1.000000" stroke="none" 
	d="
M743.237305,84.950218 
	C743.378906,84.096390 743.520508,83.242554 744.218994,81.951508 
	C746.864319,81.512352 748.952637,81.510414 751.041016,81.508469 
	C751.646729,82.816895 752.252380,84.125320 752.823120,85.358337 
	C755.413818,84.085060 757.779724,82.473274 760.393188,81.719322 
	C769.346802,79.136299 776.176331,83.745293 776.712952,93.104370 
	C777.177795,101.211411 776.809631,109.366219 776.809631,117.956268 
	C775.030334,118.120834 773.451355,118.266876 771.010315,118.414940 
	C767.556519,118.707428 766.748657,117.591461 766.829224,114.989548 
	C767.014404,109.010307 766.978699,103.019157 766.850342,97.036751 
	C766.733765,91.600578 764.664185,89.142410 760.601624,89.169640 
	C755.927368,89.200966 753.711731,91.796112 753.701599,97.299461 
	C753.688904,104.195473 753.698547,111.091522 753.698547,117.978050 
	C750.216858,118.276321 747.594788,118.500954 744.972656,118.725594 
	C744.776855,118.598648 744.581055,118.471695 744.050537,117.797882 
	C743.584717,116.157539 743.453552,115.064079 743.439514,113.518303 
	C743.471558,107.057205 743.386475,101.048416 743.436401,94.597954 
	C743.460083,91.087593 743.348694,88.018906 743.237305,84.950218 
z"/>
<path fill="#20262C" opacity="1.000000" stroke="none" 
	d="
M744.983032,119.063988 
	C747.594788,118.500954 750.216858,118.276321 753.698547,117.978050 
	C753.698547,111.091522 753.688904,104.195473 753.701599,97.299461 
	C753.711731,91.796112 755.927368,89.200966 760.601624,89.169640 
	C764.664185,89.142410 766.733765,91.600578 766.850342,97.036751 
	C766.978699,103.019157 767.014404,109.010307 766.829224,114.989548 
	C766.748657,117.591461 767.556519,118.707428 770.589111,118.565857 
	C770.488220,123.446480 767.817444,124.428482 763.393860,123.771156 
	C760.836060,123.391083 757.949585,124.060097 755.421265,124.894142 
	C750.620911,126.477661 746.597351,124.540955 744.983032,119.063988 
z"/>
<path fill="#ECEEEE" opacity="1.000000" stroke="none" 
	d="
M734.872314,111.994095 
	C734.687927,113.922737 734.503601,115.851379 734.290527,118.081360 
	C731.132935,118.081360 728.108215,118.081360 724.306274,118.081360 
	C724.306274,113.962120 724.306274,109.929420 724.324341,104.990479 
	C724.256531,99.726303 724.170593,95.368362 724.084595,91.010429 
	C724.243896,88.078377 724.403076,85.146332 724.581787,81.856140 
	C727.726685,81.856140 730.735291,81.856140 734.574646,81.856140 
	C734.574646,85.338081 734.574646,88.734329 734.580688,93.024170 
	C734.681885,99.943214 734.777100,105.968651 734.872314,111.994095 
z"/>
<path fill="#22282E" opacity="1.000000" stroke="none" 
	d="
M735.253540,112.003510 
	C734.777100,105.968651 734.681885,99.943214 734.706726,93.463196 
	C736.963928,93.333893 739.101135,93.659149 741.745239,94.188019 
	C742.601868,94.607628 742.951599,94.823624 743.301392,95.039627 
	C743.386475,101.048416 743.471558,107.057205 743.297363,113.536125 
	C743.038147,114.006256 742.767761,114.100830 742.767761,114.100830 
	C740.390076,113.404854 738.012451,112.708885 735.253540,112.003510 
z"/>
<path fill="#2C3238" opacity="1.000000" stroke="none" 
	d="
M723.635498,91.015106 
	C724.170593,95.368362 724.256531,99.726303 724.225769,104.535469 
	C721.818970,105.034821 719.424866,104.675423 717.263245,105.226952 
	C714.051880,106.046295 712.651001,104.725807 711.796631,101.552536 
	C712.552002,98.419312 713.383545,95.692612 714.288696,92.625542 
	C717.303589,91.863380 720.244995,91.441589 723.635498,91.015106 
z"/>
<path fill="#ECEEEE" opacity="1.000000" stroke="none" 
	d="
M723.536865,69.379028 
	C725.538086,67.840622 727.457458,66.713509 729.683838,65.442276 
	C731.930115,67.482407 734.375488,69.432518 735.549500,71.970695 
	C735.994385,72.932518 733.731812,76.415901 732.308960,76.688011 
	C729.911926,77.146431 726.890442,76.491524 724.748108,75.245186 
	C723.635681,74.598000 723.843567,71.681618 723.536865,69.379028 
z"/>
<path fill="#2C3238" opacity="1.000000" stroke="none" 
	d="
M743.436401,94.597954 
	C742.951599,94.823624 742.601868,94.607628 742.148987,94.209702 
	C742.256775,91.147606 742.467651,88.267441 742.957886,85.168747 
	C743.348694,88.018906 743.460083,91.087593 743.436401,94.597954 
z"/>
<path fill="#2C3238" opacity="1.000000" stroke="none" 
	d="
M750.892578,81.195503 
	C748.952637,81.510414 746.864319,81.512352 744.327637,81.531158 
	C746.167664,81.326202 748.455933,81.104362 750.892578,81.195503 
z"/>
<path fill="#21262D" opacity="1.000000" stroke="none" 
	d="
M723.519775,10.955415 
	C724.052002,10.297041 724.632385,9.932302 725.212769,9.567553 
	C725.324524,10.110378 725.436218,10.653214 725.547974,11.196048 
	C724.887939,11.213715 724.227966,11.231382 723.519775,10.955415 
z"/>
<path fill="#2C3238" opacity="1.000000" stroke="none" 
	d="
M718.955078,85.886063 
	C718.498779,84.968773 718.300232,83.891617 718.063965,82.402260 
	C718.421631,83.235443 718.817200,84.480827 718.955078,85.886063 
z"/>
<path fill="#2C3238" opacity="1.000000" stroke="none" 
	d="
M742.776733,114.406685 
	C742.767761,114.100830 743.038147,114.006256 743.180298,113.988434 
	C743.453552,115.064079 743.584717,116.157539 743.725830,117.667267 
	C743.419006,116.959862 743.102295,115.836197 742.776733,114.406685 
z"/>
<path fill="#F4F5F6" opacity="1.000000" stroke="none" 
	d="
M601.717163,98.987358 
	C601.779297,97.271835 601.841431,95.556313 601.817139,93.419281 
	C601.792664,87.309883 601.854553,81.621994 601.917908,75.063820 
	C601.996399,72.256378 602.073425,70.319221 602.150513,68.382057 
	C603.817932,68.388802 605.485413,68.395546 607.927795,68.432098 
	C613.152405,68.357613 617.602051,68.253311 622.051697,68.149017 
	C626.301514,68.149017 630.551331,68.149017 635.434509,68.149017 
	C635.434509,70.942009 635.434509,73.041695 635.253540,75.816063 
	C627.704041,76.490738 620.335510,76.490738 612.783569,76.490738 
	C612.783569,81.151039 612.783569,84.705055 612.783569,88.862869 
	C618.772461,88.862869 624.468445,88.862869 630.612610,88.862869 
	C630.481201,91.850838 630.377502,94.208069 630.255554,96.980087 
	C624.035950,96.980087 618.451660,96.980087 612.903809,96.980087 
	C612.903809,101.451279 612.903809,105.462852 612.903809,109.830322 
	C618.815491,109.830322 624.274719,109.720894 629.725464,109.887215 
	C631.746948,109.948891 633.748718,110.657623 635.759460,111.071266 
	C635.606934,113.348267 635.454346,115.625275 635.275818,118.291084 
	C624.523682,118.291084 614.088989,118.313354 603.655151,118.230995 
	C603.081482,118.226463 602.514709,117.351860 601.835205,116.442070 
	C601.780396,114.286896 601.835022,112.571899 601.896301,109.982986 
	C601.841003,105.735176 601.779114,102.361267 601.717163,98.987358 
z"/>
<path fill="#F3F4F4" opacity="1.000000" stroke="none" 
	d="
M673.014221,118.594574 
	C672.249207,118.502327 671.484192,118.410080 670.353699,118.458435 
	C667.562012,118.402954 666.254089,117.600182 666.357239,114.651917 
	C666.577698,108.352531 666.340759,102.035606 666.233459,95.726845 
	C666.163208,91.597755 664.247620,89.077446 659.873535,89.146202 
	C655.450745,89.215706 653.103333,91.825027 653.112488,96.368416 
	C653.126770,103.491631 653.116272,110.614899 653.116272,117.975204 
	C649.694763,117.975204 646.602051,117.975204 643.060364,117.975204 
	C643.060364,114.483841 643.060364,111.195763 643.065063,106.995697 
	C643.076050,102.294777 642.960999,98.500748 643.119751,94.718216 
	C643.309631,90.193214 643.733398,85.678017 644.055908,81.158569 
	C647.097595,82.080421 651.832764,79.391449 652.292114,84.959839 
	C655.338501,83.667122 658.084045,81.957558 661.055908,81.343590 
	C669.791626,79.538887 675.753662,84.288857 676.091370,93.208420 
	C676.354858,100.166443 676.221558,107.139488 676.270203,114.880981 
	C675.188599,116.635597 674.101440,117.615089 673.014221,118.594574 
z"/>
<path fill="#293037" opacity="1.000000" stroke="none" 
	d="
M643.853271,80.877762 
	C643.733398,85.678017 643.309631,90.193214 643.119751,94.718216 
	C642.960999,98.500748 643.076050,102.294777 642.979980,106.545250 
	C640.751770,108.318115 638.613403,109.629433 636.117310,111.006012 
	C633.748718,110.657623 631.746948,109.948891 629.725464,109.887215 
	C624.274719,109.720894 618.815491,109.830322 612.903809,109.830322 
	C612.903809,105.462852 612.903809,101.451279 612.903809,96.980087 
	C618.451660,96.980087 624.035950,96.980087 630.255554,96.980087 
	C630.377502,94.208069 630.481201,91.850838 630.612610,88.862869 
	C624.468445,88.862869 618.772461,88.862869 612.783569,88.862869 
	C612.783569,84.705055 612.783569,81.151039 612.783569,76.490738 
	C620.335510,76.490738 627.704041,76.490738 635.356079,76.195923 
	C638.309875,77.466385 640.980286,79.031662 643.853271,80.877762 
z"/>
<path fill="#1D2229" opacity="1.000000" stroke="none" 
	d="
M673.050537,118.994446 
	C674.101440,117.615089 675.188599,116.635597 676.370972,115.341614 
	C679.158081,114.694672 681.849976,114.362221 684.919678,113.959938 
	C685.336182,114.688232 685.651306,116.064972 685.372375,116.198174 
	C680.800537,118.381966 680.640198,122.583916 682.586365,125.770424 
	C684.206055,128.422287 687.933960,129.851624 690.859863,131.602234 
	C691.776978,132.150955 693.122009,131.984467 694.616516,132.308929 
	C694.666199,137.030777 691.013977,137.305542 687.794495,137.917068 
	C684.778870,138.489883 683.408691,136.990005 682.626648,133.993500 
	C682.175720,132.265503 680.020447,131.053131 678.962769,129.397614 
	C676.882263,126.140999 675.032227,122.737206 673.050537,118.994446 
z"/>
<path fill="#2A2F35" opacity="1.000000" stroke="none" 
	d="
M574.039307,86.954895 
	C570.774963,85.290138 567.677795,83.306702 564.289185,81.121361 
	C563.383728,75.908844 565.925781,73.815681 570.623108,74.042358 
	C573.868469,74.198975 577.097778,74.690491 581.294434,75.133781 
	C578.598389,79.508911 576.402405,83.072563 574.039307,86.954895 
z"/>
<path fill="#2A2F35" opacity="1.000000" stroke="none" 
	d="
M602.111145,67.986740 
	C602.073425,70.319221 601.996399,72.256378 601.832764,74.603661 
	C599.314148,73.990379 596.658386,73.288780 594.539246,71.815392 
	C593.382751,71.011330 592.172913,68.132973 592.659363,67.522369 
	C594.089050,65.728012 596.211060,64.083168 598.369019,63.482063 
	C599.160339,63.261650 600.812378,66.131340 602.111145,67.986740 
z"/>
<path fill="#2A2F35" opacity="1.000000" stroke="none" 
	d="
M547.088013,85.210922 
	C546.062927,87.282417 544.878845,88.981003 543.438232,90.864120 
	C540.864136,90.938980 537.944702,91.196892 538.203857,87.825111 
	C538.348633,85.940987 539.435364,83.416489 540.912598,82.512779 
	C543.190552,81.119255 545.761047,81.866470 547.088013,85.210922 
z"/>
<path fill="#2A2F35" opacity="1.000000" stroke="none" 
	d="
M621.747681,67.859924 
	C617.602051,68.253311 613.152405,68.357613 608.326782,68.308044 
	C612.448425,67.959732 616.946045,67.765289 621.747681,67.859924 
z"/>
<path fill="#252A31" opacity="1.000000" stroke="none" 
	d="
M563.681641,32.645264 
	C564.631592,33.171799 565.338745,33.921383 566.045837,34.670967 
	C565.525696,34.991016 565.005493,35.311069 564.485352,35.631119 
	C564.136536,34.710186 563.787659,33.789249 563.681641,32.645264 
z"/>
<path fill="#293037" opacity="1.000000" stroke="none" 
	d="
M303.540253,81.416595 
	C307.984344,81.249817 312.657532,79.169746 316.797729,82.992775 
	C310.011169,89.941391 309.642365,95.432800 316.045349,103.030838 
	C315.078094,104.223061 314.069489,105.466263 312.844238,106.935913 
	C309.868927,106.780777 307.110229,106.399185 303.953888,106.024475 
	C303.506226,97.977615 303.456238,89.923866 303.540253,81.416595 
z"/>
<path fill="#252A31" opacity="1.000000" stroke="none" 
	d="
M317.393616,131.821228 
	C321.530273,131.879044 325.328247,132.140076 329.549103,132.509369 
	C329.976074,136.739227 331.363861,141.117096 327.925873,144.618835 
	C327.101746,145.458237 325.654358,146.854645 325.116913,146.612350 
	C322.165192,145.281616 318.909210,144.013641 316.706146,141.786118 
	C313.820374,138.868271 313.030457,135.134293 317.393616,131.821228 
z"/>
<path fill="#252A31" opacity="1.000000" stroke="none" 
	d="
M283.202576,119.556931 
	C286.760986,117.835335 290.249512,116.536125 292.662079,115.637627 
	C295.888489,116.686943 298.536621,117.548195 301.606323,118.552734 
	C300.683380,127.618271 290.165375,131.139908 281.467285,125.468536 
	C282.014771,123.664055 282.573730,121.821686 283.202576,119.556931 
z"/>
<path fill="#252A31" opacity="1.000000" stroke="none" 
	d="
M340.925232,129.690521 
	C341.820709,128.249588 342.853516,127.187973 344.115448,125.968353 
	C346.464844,126.178314 348.592682,126.507568 350.704010,126.921165 
	C358.332520,128.415543 360.095245,131.290451 358.324402,139.279373 
	C349.561523,139.418625 343.477356,136.172592 340.925232,129.690521 
z"/>
<path fill="#252A31" opacity="1.000000" stroke="none" 
	d="
M353.528198,171.027771 
	C355.042145,172.711151 355.042023,173.178802 353.019104,174.382996 
	C352.132385,174.910812 350.841461,174.759705 349.734100,174.916870 
	C349.933777,173.791428 349.837250,172.454590 350.436829,171.614532 
	C350.839508,171.050308 352.227905,171.189606 353.528198,171.027771 
z"/>
<path fill="#293037" opacity="1.000000" stroke="none" 
	d="
M303.531708,117.915192 
	C303.225189,114.991096 303.270294,111.926575 303.432739,108.418205 
	C303.661163,111.241158 303.772247,114.507965 303.531708,117.915192 
z"/>
<path fill="#F8F9F9" opacity="1.000000" stroke="none" 
	d="
M24.027037,79.122147 
	C26.494637,79.268906 28.962236,79.415665 32.270523,79.690262 
	C34.788181,79.671013 36.465145,79.523911 38.585258,79.433784 
	C43.583447,79.490761 48.138489,79.490761 53.061462,79.490761 
	C53.061462,85.223335 53.061462,90.029137 52.982529,95.283272 
	C52.961021,96.944450 53.018440,98.157295 52.991127,99.806961 
	C52.906395,104.970306 52.906395,109.696815 52.906395,115.220001 
	C47.475159,115.220001 42.737579,115.220001 37.592468,115.139084 
	C35.812973,115.093269 34.441006,115.128387 33.069038,115.163506 
	C28.304777,115.163506 23.540516,115.163506 18.070333,115.163506 
	C18.070333,104.997162 18.070333,95.459991 18.074955,85.031693 
	C18.184586,82.730278 18.289597,81.319984 18.398394,79.858833 
	C20.527004,79.580238 22.277020,79.351196 24.027037,79.122147 
z"/>
<path fill="#F7F8F8" opacity="1.000000" stroke="none" 
	d="
M81.186050,128.839691 
	C82.556290,128.878296 83.926537,128.916901 86.066345,128.970963 
	C87.562782,128.904419 88.289658,128.822418 89.016533,128.740433 
	C92.781090,128.740433 96.545647,128.740433 100.635406,128.740433 
	C100.635406,140.629211 100.635406,151.943085 100.635406,164.002426 
	C98.672127,164.002426 96.762665,164.002426 94.425583,164.130920 
	C84.942772,164.259415 75.887566,164.259415 66.065536,164.259415 
	C66.065536,158.914246 66.065536,154.199265 66.095108,148.622986 
	C66.060120,146.208496 65.995544,144.655289 65.987015,142.629333 
	C66.043060,137.908417 66.043060,133.660233 66.043060,128.839691 
	C71.598587,128.839691 76.392319,128.839691 81.186050,128.839691 
z"/>
<path fill="#55CDD9" opacity="1.000000" stroke="none" 
	d="
M65.930969,143.102097 
	C65.995544,144.655289 66.060120,146.208496 66.055222,148.125793 
	C56.886593,148.421921 47.778236,148.085098 38.692039,148.395981 
	C33.931946,148.558838 32.746456,146.892212 32.920834,142.400436 
	C33.261108,133.635300 33.053200,124.848869 33.070660,115.617386 
	C34.441006,115.128387 35.812973,115.093269 37.599213,115.588974 
	C38.013489,125.011032 38.013489,133.902267 38.013489,143.102097 
	C47.787197,143.102097 56.859081,143.102097 65.930969,143.102097 
z"/>
<path fill="#61CED7" opacity="1.000000" stroke="none" 
	d="
M38.142113,79.376808 
	C36.465145,79.523911 34.788181,79.671013 32.741470,79.714775 
	C32.371723,79.611443 32.047569,79.376877 32.328728,79.165176 
	C32.699688,78.640343 32.789494,78.327202 32.879299,78.014061 
	C32.911072,73.648643 32.942844,69.283234 32.895672,64.458664 
	C32.888428,59.516201 33.133549,55.026810 32.976482,50.551525 
	C32.852772,47.026630 34.289768,45.898563 37.689369,45.961926 
	C46.827541,46.132256 55.970318,46.055523 65.580505,46.008339 
	C66.104187,47.314796 66.158623,48.689793 65.653671,50.411102 
	C56.224518,50.757412 47.354744,50.757412 38.142113,50.757412 
	C38.142113,60.634651 38.142113,70.005730 38.142113,79.376808 
z"/>
<path fill="#1D232A" opacity="1.000000" stroke="none" 
	d="
M24.019264,78.769699 
	C22.277020,79.351196 20.527004,79.580238 18.398394,79.858833 
	C18.289597,81.319984 18.184586,82.730278 17.984505,84.570816 
	C14.317780,84.914330 12.619183,82.973213 13.155443,79.550812 
	C13.720650,75.943680 14.364558,71.988487 19.373962,72.078781 
	C23.507694,72.153297 23.797754,75.323853 24.019264,78.769699 
z"/>
<path fill="#1E2228" opacity="1.000000" stroke="none" 
	d="
M8.735336,34.382683 
	C7.955713,35.475220 7.120294,36.250481 6.284874,37.025745 
	C5.929395,36.455540 5.573916,35.885334 5.218437,35.315125 
	C6.372138,34.898556 7.525839,34.481987 8.735336,34.382683 
z"/>
<path fill="#1D232A" opacity="1.000000" stroke="none" 
	d="
M32.704468,78.136894 
	C32.789494,78.327202 32.699688,78.640343 32.352005,78.966476 
	C32.162231,78.692932 32.307400,78.453018 32.704468,78.136894 
z"/>
<path fill="#2A2F35" opacity="1.000000" stroke="none" 
	d="
M601.334351,98.987625 
	C601.779114,102.361267 601.841003,105.735176 601.813171,109.560921 
	C595.250977,111.002747 597.267395,105.643456 596.580444,102.715332 
	C595.826050,99.499168 598.328186,98.891716 601.334351,98.987625 
z"/>
<path fill="#21262D" opacity="1.000000" stroke="none" 
	d="
M575.764465,152.008026 
	C576.904541,152.437958 577.663574,152.863068 578.422607,153.288193 
	C577.856140,153.795410 577.255493,154.763809 576.729492,154.724838 
	C575.034973,154.599289 573.368042,154.102432 571.690430,153.748734 
	C571.682129,153.334885 571.673828,152.921036 571.665527,152.507187 
	C572.904846,152.339203 574.144104,152.171204 575.764465,152.008026 
z"/>
<path fill="#252A31" opacity="1.000000" stroke="none" 
	d="
M570.903870,121.464798 
	C570.523804,121.016808 570.385254,120.590012 570.246704,120.163208 
	C570.520691,120.078751 570.794617,119.994293 571.068604,119.909836 
	C571.094238,120.435219 571.119812,120.960609 570.903870,121.464798 
z"/>
<path fill="#21262D" opacity="1.000000" stroke="none" 
	d="
M568.315796,143.385864 
	C567.996033,143.242172 567.822144,142.960663 567.648193,142.679153 
	C567.919373,142.868790 568.190491,143.058426 568.315796,143.385864 
z"/>
<path fill="#49A3AB" opacity="1.000000" stroke="none" 
	d="
M94.479675,99.957138 
	C97.466011,96.399948 101.568695,98.501793 105.752083,99.000175 
	C102.344147,99.480598 98.635506,99.675316 94.479675,99.957138 
z"/>
<path fill="#2A2F35" opacity="1.000000" stroke="none" 
	d="
M88.964943,128.428528 
	C88.289658,128.822418 87.562782,128.904419 86.472870,128.897064 
	C86.090248,127.784760 86.070663,126.761795 86.133995,125.362923 
	C87.115730,126.030212 88.014542,127.073410 88.964943,128.428528 
z"/>
<path fill="#2A2F35" opacity="1.000000" stroke="none" 
	d="
M86.557068,110.892258 
	C86.516945,109.922981 86.803787,108.831345 87.459045,107.671844 
	C87.512985,108.659279 87.198502,109.714584 86.557068,110.892258 
z"/>
<path fill="#22282E" opacity="1.000000" stroke="none" 
	d="
M114.116325,100.355057 
	C114.012581,100.193520 114.425102,100.070663 114.638809,100.047661 
	C114.894730,100.187370 114.936958,100.350090 114.898453,100.751694 
	C114.582588,100.877846 114.383377,100.719849 114.116325,100.355057 
z"/>
<path fill="#21262D" opacity="1.000000" stroke="none" 
	d="
M705.913208,132.542328 
	C708.799316,130.723648 711.731689,129.315308 714.956238,127.785294 
	C716.410156,128.681625 718.699402,130.049957 718.513245,130.649170 
	C718.037415,132.180557 716.705078,133.795639 715.277954,134.620178 
	C709.561523,137.922882 708.255066,137.584747 705.913208,132.542328 
z"/>
<path fill="#1D2229" opacity="1.000000" stroke="none" 
	d="
M701.022583,139.808563 
	C702.059204,139.811371 702.857849,140.044693 703.656433,140.278015 
	C703.322998,140.771774 702.989563,141.265533 702.656189,141.759308 
	C702.032349,141.185913 701.408447,140.612503 701.022583,139.808563 
z"/>
<path fill="#20262C" opacity="1.000000" stroke="none" 
	d="
M72.003387,29.489796 
	C68.677818,30.146461 64.955406,29.949553 66.025543,35.595047 
	C60.909275,34.832714 61.372875,30.473852 61.874912,27.236023 
	C62.086830,25.869284 65.890038,24.519062 68.218338,24.147018 
	C71.740501,23.584202 72.104187,26.362688 72.003387,29.489796 
z"/>
<path fill="#363B41" opacity="1.000000" stroke="none" 
	d="
M323.259979,117.189674 
	C326.817474,117.502014 329.990173,117.585014 333.059753,118.190643 
	C334.259583,118.427376 336.119415,119.862999 336.095856,120.708534 
	C336.059082,122.030571 334.826385,124.290672 333.837006,124.442986 
	C330.005890,125.032799 326.031311,125.311768 322.196747,124.900047 
	C320.964081,124.767700 319.177063,122.151276 319.173340,120.667465 
	C319.170441,119.504486 321.526093,118.335609 323.259979,117.189674 
z"/>
<path fill="#363B41" opacity="1.000000" stroke="none" 
	d="
M326.156189,87.791885 
	C331.715393,88.585976 333.651031,90.646248 332.982117,94.583969 
	C332.381317,98.120911 329.299805,100.129913 325.548676,99.300819 
	C321.745453,98.460213 320.133209,95.674507 321.160400,92.268318 
	C321.697449,90.487526 324.150757,89.284630 326.156189,87.791885 
z"/>
<path fill="#293037" opacity="1.000000" stroke="none" 
	d="
M293.452148,99.627022 
	C293.609619,104.581520 294.270935,109.346115 288.028503,110.607796 
	C284.562775,111.308258 281.783142,110.437828 279.894684,107.322105 
	C277.490631,103.355713 277.587738,94.453384 280.933746,91.817223 
	C283.056366,90.144920 286.763153,89.193039 289.390472,89.728569 
	C294.388885,90.747406 293.317108,95.468124 293.452148,99.627022 
z"/>
<path fill="#293037" opacity="1.000000" stroke="none" 
	d="
M303.120544,66.436691 
	C306.748230,69.534241 304.869690,73.646568 303.925873,77.830612 
	C303.467682,74.316879 303.317841,70.607628 303.120544,66.436691 
z"/>
<path fill="#363B41" opacity="1.000000" stroke="none" 
	d="
M359.812317,93.384476 
	C361.882782,89.048492 365.166748,87.635071 369.331940,88.400131 
	C372.781036,89.033653 374.818542,91.107529 374.809113,95.455643 
	C370.109589,95.455643 365.537598,95.500954 360.969818,95.382545 
	C360.533508,95.371231 360.123688,94.338020 359.812317,93.384476 
z"/>
<path fill="#363B41" opacity="1.000000" stroke="none" 
	d="
M566.611633,91.820419 
	C567.592102,94.341461 567.336731,95.675400 564.529114,95.588066 
	C560.553162,95.464378 556.570557,95.556686 552.590759,95.556686 
	C552.224792,95.140907 551.858826,94.725136 551.492859,94.309357 
	C553.367432,92.452789 554.936401,89.933357 557.188293,88.895187 
	C560.557983,87.341652 564.048889,88.053459 566.611633,91.820419 
z"/>
<path fill="#363B41" opacity="1.000000" stroke="none" 
	d="
M521.876282,95.428314 
	C520.085510,95.417267 518.720215,95.607651 517.443787,95.352692 
	C515.732666,95.010887 514.090332,94.324516 512.418457,93.786102 
	C513.580444,92.351440 514.494934,90.562439 515.949463,89.546783 
	C520.835144,86.135193 526.053650,88.589752 527.782715,95.431427 
	C525.872131,95.431427 524.106750,95.431427 521.876282,95.428314 
z"/>
<path fill="#293037" opacity="1.000000" stroke="none" 
	d="
M204.327713,109.909515 
	C200.445145,109.966766 196.991608,109.966766 193.194611,109.966766 
	C193.194611,105.474678 193.194611,101.259003 193.194611,96.551628 
	C196.530823,96.551628 199.814957,96.442619 203.088669,96.580490 
	C206.801086,96.736824 210.180740,97.736259 210.709396,102.145027 
	C211.232681,106.509109 208.999756,109.026421 204.327713,109.909515 
z"/>
<path fill="#2C3238" opacity="1.000000" stroke="none" 
	d="
M194.154297,76.903000 
	C197.757431,76.919411 200.923447,76.742882 204.005005,77.172295 
	C207.050659,77.596695 209.711914,79.568169 208.842453,82.805885 
	C208.240616,85.046997 206.057404,87.857437 203.995895,88.481590 
	C200.834915,89.438629 197.170563,88.732994 192.739258,88.732994 
	C193.048538,84.868309 193.364349,80.921890 194.154297,76.903000 
z"/>
<path fill="#1D2229" opacity="1.000000" stroke="none" 
	d="
M38.585258,79.433784 
	C38.142113,70.005730 38.142113,60.634651 38.142113,50.757412 
	C47.354744,50.757412 56.224518,50.757412 65.561279,50.813431 
	C66.028275,55.444881 66.028275,60.020313 66.028275,65.471695 
	C71.056160,65.471695 75.566086,65.471695 80.558205,65.523804 
	C81.113029,69.862831 81.171371,74.150063 81.262299,78.436592 
	C81.355133,82.813408 82.140030,87.278526 76.565384,89.508606 
	C75.101906,90.094063 74.438026,92.678322 72.760635,94.561760 
	C69.740326,94.871147 67.366318,94.963432 64.597794,94.950577 
	C60.489346,94.841927 56.775402,94.838432 53.061462,94.834930 
	C53.061462,90.029137 53.061462,85.223335 53.061462,79.490761 
	C48.138489,79.490761 43.583447,79.490761 38.585258,79.433784 
z"/>
<path fill="#1C232A" opacity="1.000000" stroke="none" 
	d="
M65.987015,142.629333 
	C56.859081,143.102097 47.787197,143.102097 38.013489,143.102097 
	C38.013489,133.902267 38.013489,125.011032 38.006744,115.669899 
	C42.737579,115.220001 47.475159,115.220001 52.906395,115.220001 
	C52.906395,109.696815 52.906395,104.970306 53.449699,99.799408 
	C57.661850,99.263519 61.330696,99.172012 65.431114,99.196724 
	C68.238541,99.277100 70.614403,99.241249 72.990257,99.205399 
	C75.244141,101.882919 77.596497,104.486145 79.701340,107.276100 
	C80.495331,108.328537 81.096931,109.802490 81.133041,111.102432 
	C81.288757,116.709702 81.202240,122.323692 81.194977,128.387466 
	C76.392319,128.839691 71.598587,128.839691 66.043060,128.839691 
	C66.043060,133.660233 66.043060,137.908417 65.987015,142.629333 
z"/>
<path fill="#55CDD9" opacity="1.000000" stroke="none" 
	d="
M72.993248,98.772995 
	C70.614403,99.241249 68.238541,99.277100 65.430679,98.794037 
	C64.996544,97.201996 64.994431,96.128860 64.992310,95.055725 
	C67.366318,94.963432 69.740326,94.871147 72.557785,94.831726 
	C72.999565,96.036591 72.997902,97.188583 72.993248,98.772995 
z"/>
<path fill="#363B41" opacity="1.000000" stroke="none" 
	d="
M691.950378,123.049561 
	C690.374512,119.017296 691.805481,117.248299 695.618408,117.393394 
	C698.778564,117.513641 701.978638,117.601776 705.064209,118.202095 
	C706.436035,118.468994 707.569519,119.961189 708.811157,120.897217 
	C707.712036,122.185570 706.841431,124.196869 705.471985,124.629662 
	C700.974548,126.051018 696.323059,126.639198 691.950378,123.049561 
z"/>
<path fill="#2C3238" opacity="1.000000" stroke="none" 
	d="
M695.962708,88.644630 
	C700.000427,87.512527 703.880432,87.366837 704.691223,91.879341 
	C705.078064,94.032539 703.520569,97.837067 701.759583,98.712524 
	C699.953613,99.610306 696.053711,98.633080 694.449402,97.065269 
	C691.887024,94.561302 692.697205,91.244713 695.962708,88.644630 
z"/>
<path fill="#363B41" opacity="1.000000" stroke="none" 
	d="
M801.116089,88.355537 
	C805.704102,88.497452 808.317566,90.387054 808.759766,95.274658 
	C803.658936,95.274658 798.709351,95.274658 793.315308,95.274658 
	C794.242126,90.975761 796.663330,88.817009 801.116089,88.355537 
z"/>
<path fill="#5CD1DE" opacity="1.000000" stroke="none" 
	d="
M64.597801,94.950577 
	C64.994431,96.128860 64.996544,97.201996 64.999100,98.677818 
	C61.330696,99.172012 57.661850,99.263519 53.534431,99.362579 
	C53.018440,98.157295 52.961021,96.944450 52.982529,95.283272 
	C56.775402,94.838432 60.489346,94.841927 64.597801,94.950577 
z"/>
</svg>