<svg version="1.1" id="Layer_1" xmlns="http://www.w3.org/2000/svg" xmlns:xlink="http://www.w3.org/1999/xlink" x="0px" y="0px"
	 width="100%" viewBox="0 0 772 198" enable-background="new 0 0 772 198" xml:space="preserve">
<path fill="#FDFEFE" opacity="1.000000" stroke="none" 
	d="
M550.000000,199.000000 
	C366.666687,199.000000 183.833374,199.000000 1.000049,199.000000 
	C1.000033,133.000031 1.000033,67.000061 1.000016,1.000067 
	C258.333282,1.000045 515.666565,1.000045 772.999878,1.000022 
	C772.999878,66.999931 772.999878,132.999863 772.999939,198.999908 
	C698.833313,199.000000 624.666687,199.000000 550.000000,199.000000 
M523.674072,81.655243 
	C516.236877,85.845451 513.163086,93.041763 515.000244,101.962044 
	C516.380249,108.662254 521.265808,113.266045 527.856812,114.076942 
	C534.717773,114.921051 540.237732,112.045166 543.555237,104.662567 
	C540.700989,105.444122 538.486755,105.457466 537.120605,106.540512 
	C533.629150,109.308472 529.959534,110.154251 525.998169,108.356140 
	C522.156555,106.612373 520.354187,103.397675 521.837463,99.149551 
	C529.250854,99.149551 536.664246,99.149551 544.012695,99.149551 
	C545.135681,85.059517 535.627930,76.895187 523.674072,81.655243 
M452.517883,93.693718 
	C452.605743,93.123848 452.693634,92.553978 452.893219,91.345383 
	C452.836670,90.921082 452.780121,90.496780 452.682922,89.336060 
	C450.766724,89.143082 448.854462,88.882904 446.933533,88.770424 
	C442.223328,88.494598 437.509064,88.286903 432.839935,87.118469 
	C432.882690,83.056488 432.925446,78.994507 433.903625,74.814018 
	C440.557617,74.540169 447.211578,74.266319 454.218292,73.457611 
	C454.199341,73.034485 454.180359,72.611366 454.448059,71.581673 
	C453.646362,70.837837 452.856842,69.464050 452.041016,69.448235 
	C444.411957,69.300339 436.777679,69.345985 429.147308,69.474869 
	C428.514587,69.485558 427.899109,70.515144 427.134827,71.989700 
	C427.153473,84.987488 427.172119,97.985268 427.012787,111.585648 
	C427.369812,111.958588 427.726807,112.331520 428.910065,112.915565 
	C431.886810,113.435280 433.120880,112.403099 432.959595,109.184738 
	C432.713074,104.265030 432.894928,99.323860 432.894928,93.623138 
	C439.670013,93.623138 445.785339,93.623138 452.517883,93.693718 
M185.755005,91.872787 
	C185.755005,91.872787 185.346420,91.822342 184.825928,91.086777 
	C185.311020,89.683838 185.435333,87.967133 186.338913,86.928123 
	C192.934799,79.343643 190.030930,68.445953 180.315781,65.928192 
	C176.721405,64.996681 172.765106,65.461769 168.105103,65.058441 
	C165.709564,65.126167 163.314026,65.193893 160.210861,64.927376 
	C155.976776,64.927376 151.742676,64.927376 147.169571,64.927376 
	C147.299774,67.439369 147.393005,69.237869 147.296204,71.950188 
	C147.296204,86.713181 147.296204,101.476173 147.296204,116.516579 
	C153.757614,116.516579 159.856613,116.516579 166.847748,116.812843 
	C172.561157,116.110504 178.690613,116.483772 183.896774,114.470055 
	C193.214478,110.866020 194.045975,98.239075 185.755005,91.872787 
M595.869629,111.138939 
	C596.218140,107.902252 593.926941,108.367615 591.975403,108.366798 
	C585.912659,108.364281 579.849915,108.365875 573.182800,108.365875 
	C573.182800,103.701347 573.182800,99.465164 573.776672,94.838402 
	C574.830322,94.448517 575.883911,94.058632 577.872375,93.773438 
	C582.858337,93.698868 587.844299,93.624298 593.446960,93.631233 
	C593.564880,93.071953 593.682861,92.512665 593.864014,91.335442 
	C593.826538,90.924355 593.789124,90.513268 593.788757,89.314224 
	C592.111023,89.010155 590.443542,88.535522 588.753662,88.433815 
	C583.569946,88.121857 578.377686,87.952904 573.224304,86.848419 
	C573.208984,83.300842 573.193665,79.753265 573.502197,75.832481 
	C573.705200,75.543617 573.763123,75.228119 574.638977,74.701691 
	C580.078430,74.694244 585.521179,74.788002 590.955078,74.610329 
	C592.366821,74.564178 593.750793,73.669868 595.428162,72.753769 
	C595.309082,72.141151 595.190002,71.528526 594.645508,70.141426 
	C586.097168,70.105873 577.548767,70.070320 568.401489,69.949715 
	C568.273071,70.299507 568.144714,70.649307 567.818665,71.918594 
	C567.818665,85.600822 567.818665,99.283058 567.818665,113.025146 
	C577.194885,113.025146 586.102905,113.025146 595.585022,112.978493 
	C595.646179,112.631538 595.707336,112.284592 595.869629,111.138939 
M663.577148,121.844810 
	C663.843018,121.571411 664.108887,121.298012 664.979126,120.891769 
	C665.324768,119.993179 665.670349,119.094589 666.424255,117.442299 
	C666.424255,105.389938 666.424255,93.337578 666.424255,79.916634 
	C663.811401,81.487015 661.922180,82.622452 659.903809,83.835510 
	C653.700623,79.094810 647.055298,79.041031 642.028809,84.044380 
	C636.324768,89.722328 635.479797,101.843681 640.838623,107.993553 
	C642.666565,110.091362 645.765381,112.289696 648.292542,112.300285 
	C652.582642,112.318283 656.879822,110.636971 661.128113,109.680191 
	C662.501038,119.201317 660.070129,121.856613 648.657654,121.127686 
	C647.577087,120.416832 646.216797,119.922264 645.468628,118.954437 
	C643.248901,116.082741 641.269348,116.859428 638.703003,119.055954 
	C639.829285,120.494003 640.807739,121.743370 640.778259,123.270309 
	C639.284058,123.341110 637.789856,123.474083 636.295654,123.473770 
	C567.827271,123.459198 499.358917,123.431267 430.890564,123.417831 
	C429.145142,123.417488 427.399719,123.561432 425.639099,123.638756 
	C425.639099,126.384186 425.639099,128.468353 425.639099,130.559662 
	C535.275330,130.559662 644.601379,130.559662 753.828369,130.559662 
	C753.828369,128.050537 753.828369,125.990868 753.828369,123.667534 
	C751.423279,123.667534 749.440430,123.670982 747.457581,123.667015 
	C719.645996,123.611328 691.834351,123.554626 663.921143,122.945366 
	C663.859802,122.767998 663.798523,122.590630 663.577148,121.844810 
M99.135452,98.217201 
	C99.882393,98.632401 100.629333,99.047592 101.376274,99.462791 
	C101.548965,98.558121 101.721657,97.653458 102.269089,96.197662 
	C105.087608,94.438072 107.989128,92.794235 110.683792,90.861938 
	C111.761948,90.088799 113.066910,88.701447 113.102715,87.557198 
	C113.324425,80.471558 113.214203,73.375534 113.214203,65.305023 
	C109.896286,67.183136 107.098701,68.319534 104.855324,70.139198 
	C101.304802,73.019127 98.243935,72.763153 94.731285,70.142563 
	C92.462585,68.450012 89.767525,67.328964 86.569321,65.570000 
	C86.569321,68.625427 86.797043,70.631668 86.531746,72.570457 
	C84.998894,83.772675 86.848366,93.228577 99.135452,98.217201 
M30.524887,96.938835 
	C32.917927,95.434128 35.360657,94.001671 37.687691,92.401009 
	C39.431606,91.201462 42.371552,89.871788 42.462803,88.451263 
	C42.943287,80.971375 42.687855,73.444206 42.687855,65.081001 
	C38.317753,67.707558 35.165970,69.906509 31.737635,71.516617 
	C30.310703,72.186768 28.049282,72.140846 26.594481,71.480072 
	C23.071415,69.879921 19.799301,67.727249 16.124746,65.624870 
	C15.490111,78.506241 12.140183,91.649086 28.090683,97.943810 
	C28.736755,97.781158 29.382826,97.618507 30.524887,96.938835 
M377.365051,99.756569 
	C378.421173,85.949509 370.457092,76.609550 357.566833,76.537987 
	C345.145020,76.469025 336.301178,86.232552 337.146851,99.081375 
	C337.819305,109.298256 344.372864,116.208076 354.739319,117.630264 
	C364.873077,119.020523 373.161499,114.532150 375.987427,105.414093 
	C376.347778,103.782440 376.708130,102.150795 377.365051,99.756569 
M300.469788,118.633804 
	C297.499573,119.896011 294.529358,121.158218 291.577576,122.412598 
	C291.924377,123.613914 291.951050,124.144524 292.205261,124.521851 
	C296.767395,131.293289 307.017151,133.982117 317.635071,131.221329 
	C325.817810,129.093704 330.046814,124.135338 330.521606,115.005630 
	C330.936279,107.032509 330.702301,99.025238 330.737549,91.032974 
	C330.757080,86.607132 330.741058,82.181137 330.741058,77.584312 
	C326.476471,77.584312 323.011536,77.584312 319.314606,77.584312 
	C318.917267,78.840851 318.501770,80.154892 318.052856,81.574516 
	C308.501953,74.139832 298.718811,75.252869 293.074066,84.187790 
	C285.903900,95.537285 290.658936,110.623665 303.057800,116.101669 
	C304.310455,118.235847 303.690948,119.162117 300.469788,118.633804 
M19.800779,100.987816 
	C18.497324,100.258202 17.193869,99.528595 15.523273,98.593475 
	C15.523273,106.903946 15.763283,114.340668 15.423462,121.750793 
	C15.249844,125.536736 16.476288,127.703278 20.472515,129.248047 
	C22.557726,130.578323 24.795424,131.723389 26.690979,133.284027 
	C29.275631,135.412003 31.573818,135.489182 34.158024,133.375504 
	C35.667473,132.140900 37.402905,131.182587 39.719982,130.007416 
	C41.022327,129.097290 42.324673,128.187164 44.290257,127.193733 
	C49.991970,123.767441 55.780033,120.473999 61.354088,116.851288 
	C63.673855,115.343613 65.371132,115.430359 67.642372,116.862007 
	C74.114807,120.941803 80.707909,124.833420 87.305161,128.711227 
	C99.511063,135.885727 99.539955,135.878983 111.082039,127.755768 
	C112.081688,127.052223 113.433441,125.884331 113.454826,124.906609 
	C113.641754,116.359306 113.562881,107.806183 113.562881,98.825935 
	C108.576813,101.456573 104.348938,103.687187 99.902496,105.102196 
	C98.162117,104.444687 96.421738,103.787178 94.004814,103.014275 
	C85.338188,97.777260 76.596481,92.658485 68.050316,87.231766 
	C65.459122,85.586395 63.600761,85.393005 60.947227,87.099617 
	C53.688519,91.767998 45.886864,95.651413 38.927921,100.709312 
	C32.490582,105.388115 26.674431,107.205605 19.800779,100.987816 
M37.778824,49.156704 
	C42.054031,49.573906 46.329235,49.991112 51.179985,50.464481 
	C51.179985,61.359554 51.179985,72.238678 51.179985,83.963409 
	C54.492260,81.998047 57.146061,80.682465 59.503712,78.961220 
	C62.704765,76.624237 65.543991,76.180672 68.922867,78.786362 
	C71.424828,80.715805 74.431999,81.990143 78.044312,84.023674 
	C78.044312,72.061356 78.044312,61.156979 78.044312,49.714985 
	C82.454063,49.714985 86.357162,49.714985 90.260269,49.714985 
	C90.411240,49.323788 90.562218,48.932590 90.713196,48.541393 
	C82.992752,42.648228 75.189079,36.859367 67.599266,30.802521 
	C65.109253,28.815435 63.489388,29.183399 61.170029,31.005676 
	C53.576107,36.972073 45.799911,42.706478 37.778824,49.156704 
M283.181061,101.496155 
	C283.181061,88.749832 283.181061,76.003517 283.181061,63.093140 
	C278.728455,63.093140 274.962097,63.093140 270.560913,63.093140 
	C270.560913,66.242767 270.560913,69.195908 270.560913,72.149055 
	C270.560913,75.189972 270.560913,78.230888 270.560913,80.356026 
	C265.800598,78.992287 261.557434,76.735382 257.338104,76.778999 
	C247.773956,76.877831 241.346939,86.957352 242.105896,99.343895 
	C242.791687,110.536110 250.147247,118.662712 259.624176,117.695534 
	C263.566101,117.293236 267.295959,114.812851 271.005615,113.324242 
	C271.766998,117.410118 272.871246,117.760956 283.180847,116.202072 
	C283.180847,111.702942 283.180847,107.098595 283.181061,101.496155 
M210.636993,80.923218 
	C209.702133,79.756859 208.894012,77.748055 207.808243,77.584694 
	C204.751968,77.124855 201.581467,77.424141 198.016312,77.424141 
	C198.016312,86.570938 197.885406,95.190361 198.065369,103.803299 
	C198.173492,108.978302 199.521179,113.846733 204.697128,116.340538 
	C210.098526,118.942955 215.356613,118.371796 220.249466,114.827461 
	C221.036774,114.257156 221.873062,113.754448 222.710739,113.204712 
	C225.810287,119.838646 231.155640,115.569946 235.594650,116.864029 
	C235.594650,103.402786 235.594650,90.674240 235.594650,77.795723 
	C231.400482,77.795723 227.524017,77.795723 223.546051,77.795723 
	C223.452209,78.985542 223.337555,79.801201 223.331451,80.617668 
	C223.281769,87.275360 223.441772,93.941628 223.146500,100.587891 
	C222.966385,104.642128 220.393234,107.003784 216.275024,107.012642 
	C211.932236,107.021988 210.710403,104.123962 210.712860,100.318764 
	C210.716858,94.158150 210.677200,87.997498 210.636993,80.923218 
M407.089508,86.050385 
	C407.089508,83.280441 407.089508,80.510498 407.089508,77.535316 
	C404.298553,77.368263 402.038544,77.232994 399.449707,77.078041 
	C399.265900,73.626030 399.095215,70.421463 398.927979,67.281113 
	C394.583130,67.281113 390.817688,67.281113 386.676575,67.281113 
	C386.456543,70.717987 386.251129,73.926117 386.051392,77.045708 
	C383.907837,77.295341 382.298645,77.482735 380.605988,77.679855 
	C380.605988,80.981667 380.605988,84.008835 380.605988,87.063667 
	C382.696442,87.378120 384.421509,87.637611 386.489014,87.948608 
	C386.489014,91.220551 386.465759,94.186569 386.495514,97.152039 
	C386.525513,100.142677 386.547699,103.135445 386.679443,106.122604 
	C387.022156,113.894142 390.369476,117.250687 398.090149,117.660706 
	C407.678558,118.169907 409.220276,116.019920 405.795410,106.915436 
	C399.137573,106.664551 399.136383,106.664551 399.132111,99.793777 
	C399.129639,95.825279 399.131683,91.856773 399.131683,87.724319 
	C401.885956,87.414238 404.311096,87.141212 407.089508,86.050385 
M60.604343,134.953873 
	C57.651333,133.290497 54.698322,131.627121 51.114109,129.608215 
	C51.114109,137.689041 51.041859,144.800156 51.189167,151.906708 
	C51.212227,153.019196 51.958702,154.450546 52.835499,155.159927 
	C61.798748,162.411804 63.616783,162.525131 73.557739,156.454941 
	C75.172951,155.468643 77.664536,154.045624 77.736977,152.714844 
	C78.143532,145.245895 77.932869,137.743378 77.932869,129.445343 
	C73.724724,131.881180 70.718933,134.035095 67.386772,135.380951 
	C65.633392,136.089142 63.309544,135.384933 60.604343,134.953873 
M754.260803,98.693619 
	C755.602356,92.406349 753.604675,87.120155 748.842712,83.115669 
	C744.535828,79.493919 739.327820,79.074226 734.252502,81.273438 
	C727.717957,84.104904 725.355713,89.700363 724.863953,96.510201 
	C724.330933,103.890182 726.391785,109.858383 733.248535,113.388344 
	C740.843018,117.298141 750.684631,113.525436 753.667725,104.169785 
	C750.676819,105.302246 748.468445,105.646942 746.894958,106.833572 
	C743.305542,109.540543 739.594299,110.188835 735.729797,108.075012 
	C732.489990,106.302902 730.819519,103.415283 731.369690,99.092155 
	C738.947205,99.092155 746.235901,99.092155 754.260803,98.693619 
M499.219727,113.712128 
	C503.393951,112.541702 506.689362,110.354820 508.494446,105.965889 
	C505.897400,104.490425 504.108704,103.983917 501.835541,106.511215 
	C498.846313,109.834694 494.728638,110.066498 490.795715,108.154785 
	C487.386169,106.497490 485.925476,103.528084 486.136078,99.172897 
	C494.066101,99.172897 501.642639,99.172897 509.120514,99.172897 
	C510.342529,91.115891 507.135773,84.366997 501.079498,81.573151 
	C495.043304,78.788574 487.515381,80.497627 483.401520,85.586563 
	C479.247833,90.724846 478.585388,100.584290 482.198944,106.907967 
	C485.821655,113.247665 491.617706,114.879814 499.219727,113.712128 
M630.110352,94.639801 
	C629.911743,83.677864 625.310364,78.753006 616.518127,80.569023 
	C613.929321,81.103745 611.600891,82.899063 610.247070,83.572479 
	C607.986450,82.392311 606.059448,81.386314 603.377686,79.986282 
	C603.377686,91.945877 603.377686,102.343391 603.377686,112.937859 
	C605.209167,112.937859 606.760620,112.937859 608.797913,112.937859 
	C608.797913,106.654228 608.735962,100.701454 608.815063,94.750557 
	C608.895142,88.726257 612.146790,85.162094 617.308533,85.240868 
	C622.291565,85.316910 624.622437,88.085625 624.724243,94.375740 
	C624.823425,100.503860 624.745789,106.634850 624.745789,112.908661 
	C626.778137,112.908661 628.317505,112.908661 630.108093,112.908661 
	C630.108093,106.897476 630.108093,101.250252 630.110352,94.639801 
M690.958313,85.796600 
	C690.958313,94.743111 690.958313,103.689613 690.958313,112.788544 
	C692.960144,112.788544 694.464844,112.788544 696.280029,112.788544 
	C696.280029,106.267540 696.145996,100.127701 696.320557,93.996643 
	C696.472168,88.672455 699.868958,85.277191 704.607361,85.264519 
	C709.715393,85.250854 712.091980,87.978859 712.160095,94.157654 
	C712.229126,100.422218 712.175354,106.688141 712.175354,113.046539 
	C714.343201,113.046539 715.893188,113.046539 717.384338,113.046539 
	C717.384338,104.895126 717.933289,97.053673 717.234192,89.325104 
	C716.495056,81.153946 706.954102,77.335388 700.111450,81.931839 
	C699.078857,82.625496 698.141785,83.461479 697.994568,83.577026 
	C695.868774,82.376114 694.457764,81.579018 693.046753,80.781929 
	C692.351013,82.151840 691.655334,83.521759 690.958313,85.796600 
M460.994873,82.065338 
	C460.994873,92.295578 460.994873,102.525818 460.994873,112.802368 
	C462.882202,112.802368 464.280457,112.802368 466.124359,112.802368 
	C466.124359,107.753326 466.108337,102.974388 466.127655,98.195595 
	C466.168793,88.008133 466.837616,87.159302 476.683838,84.727661 
	C476.683838,83.334984 476.683838,81.923584 476.683838,79.274208 
	C472.801056,80.869957 469.612915,82.180222 467.845734,82.906502 
	C465.038483,82.224922 463.288086,81.799934 460.994873,82.065338 
M681.830200,86.702995 
	C681.749634,84.924347 681.669128,83.145699 681.581177,81.204353 
	C679.654541,81.204353 678.218872,81.204353 676.468811,81.204353 
	C676.468811,91.834557 676.468811,102.234215 676.468811,112.843796 
	C678.296692,112.843796 679.846252,112.843796 681.831238,112.843796 
	C681.831238,104.234894 681.831238,95.943947 681.830200,86.702995 
M681.046265,74.746674 
	C681.084534,73.025345 681.412720,71.223732 680.972656,69.634895 
	C680.851135,69.196381 678.221497,68.933907 677.151978,69.445808 
	C676.340698,69.834099 675.519775,72.292534 675.845398,72.593384 
	C677.064087,73.719292 678.752319,74.336861 681.046265,74.746674 
z"/>
<path fill="#133E6F" opacity="1.000000" stroke="none" 
	d="
M39.036667,130.099976 
	C37.402905,131.182587 35.667473,132.140900 34.158024,133.375504 
	C31.573818,135.489182 29.275631,135.412003 26.690979,133.284027 
	C24.795424,131.723389 22.557726,130.578323 20.183664,128.629379 
	C15.669331,119.121552 15.196656,110.270081 20.161356,101.473221 
	C26.674431,107.205605 32.490582,105.388115 38.927921,100.709312 
	C45.886864,95.651413 53.688519,91.767998 60.947227,87.099617 
	C63.600761,85.393005 65.459122,85.586395 68.050316,87.231766 
	C76.596481,92.658485 85.338188,97.777260 94.520355,103.353470 
	C96.730949,104.434372 98.426003,105.176086 100.121063,105.917801 
	C104.348938,103.687187 108.576813,101.456573 113.562881,98.825935 
	C113.562881,107.806183 113.641754,116.359306 113.454826,124.906609 
	C113.433441,125.884331 112.081688,127.052223 111.082039,127.755768 
	C99.539955,135.878983 99.511063,135.885727 87.305161,128.711227 
	C80.707909,124.833420 74.114807,120.941803 67.642372,116.862007 
	C65.371132,115.430359 63.673855,115.343613 61.354088,116.851288 
	C55.780033,120.473999 49.991970,123.767441 43.575821,127.077606 
	C39.011532,124.869682 38.912441,127.348763 39.036667,130.099976 
z"/>
<path fill="#2DAFB3" opacity="1.000000" stroke="none" 
	d="
M664.022766,123.498177 
	C691.834351,123.554626 719.645996,123.611328 747.457581,123.667015 
	C749.440430,123.670982 751.423279,123.667534 753.828369,123.667534 
	C753.828369,125.990868 753.828369,128.050537 753.828369,130.559662 
	C644.601379,130.559662 535.275330,130.559662 425.639099,130.559662 
	C425.639099,128.468353 425.639099,126.384186 425.639099,123.638756 
	C427.399719,123.561432 429.145142,123.417488 430.890564,123.417831 
	C499.358917,123.431267 567.827271,123.459198 636.295654,123.473770 
	C637.789856,123.474083 639.284058,123.341110 641.581055,123.175720 
	C643.916870,123.715317 645.449768,124.349503 646.975159,125.055878 
	C646.967590,125.128059 646.948914,125.272011 646.971558,125.671082 
	C649.007019,132.336853 654.005981,127.938332 657.501831,128.869827 
	C661.333618,129.890823 661.334839,126.288795 662.197937,123.803436 
	C662.353760,123.760902 662.589355,123.981926 662.955688,123.884705 
	C663.555664,123.691048 663.789246,123.594612 664.022766,123.498177 
z"/>
<path fill="#1A4373" opacity="1.000000" stroke="none" 
	d="
M302.940094,115.490082 
	C290.658936,110.623665 285.903900,95.537285 293.074066,84.187790 
	C298.718811,75.252869 308.501953,74.139832 318.052856,81.574516 
	C318.501770,80.154892 318.917267,78.840851 319.314606,77.584312 
	C323.011536,77.584312 326.476471,77.584312 330.741058,77.584312 
	C330.741058,82.181137 330.757080,86.607132 330.737549,91.032974 
	C330.702301,99.025238 330.936279,107.032509 330.521606,115.005630 
	C330.046814,124.135338 325.817810,129.093704 317.635071,131.221329 
	C307.017151,133.982117 296.767395,131.293289 292.205261,124.521851 
	C291.951050,124.144524 291.924377,123.613914 291.577576,122.412598 
	C294.529358,121.158218 297.499573,119.896011 300.974213,119.094818 
	C305.934723,123.282051 311.511871,124.148727 315.166901,121.406471 
	C318.850372,118.642876 318.790375,114.829712 317.883881,109.805679 
	C313.715271,115.636734 308.383911,115.740417 302.940094,115.490082 
M318.768341,94.837944 
	C318.656525,94.182854 318.632385,93.497559 318.418884,92.877472 
	C316.819061,88.231003 312.661194,85.968018 308.262054,87.311516 
	C303.707245,88.702545 301.498474,94.040474 303.083984,99.825142 
	C304.299927,104.261192 308.518555,107.197815 312.525696,105.691124 
	C314.621368,104.903145 316.523834,102.878578 317.826141,100.948631 
	C318.748688,99.581482 318.519501,97.437149 318.768341,94.837944 
z"/>
<path fill="#2AB2B4" opacity="1.000000" stroke="none" 
	d="
M37.936310,48.843388 
	C45.799911,42.706478 53.576107,36.972073 61.170029,31.005676 
	C63.489388,29.183399 65.109253,28.815435 67.599266,30.802521 
	C75.189079,36.859367 82.992752,42.648228 90.713196,48.541393 
	C90.562218,48.932590 90.411240,49.323788 90.260269,49.714985 
	C86.357162,49.714985 82.454063,49.714985 78.044312,49.714985 
	C78.044312,61.156979 78.044312,72.061356 78.044312,84.023674 
	C74.431999,81.990143 71.424828,80.715805 68.922867,78.786362 
	C65.543991,76.180672 62.704765,76.624237 59.503712,78.961220 
	C57.146061,80.682465 54.492260,81.998047 51.179985,83.963409 
	C51.179985,72.238678 51.179985,61.359554 51.179985,50.464481 
	C46.329235,49.991112 42.054031,49.573906 37.936310,48.843388 
z"/>
<path fill="#164071" opacity="1.000000" stroke="none" 
	d="
M283.180969,101.995201 
	C283.180847,107.098595 283.180847,111.702942 283.180847,116.202072 
	C272.871246,117.760956 271.766998,117.410118 271.005615,113.324242 
	C267.295959,114.812851 263.566101,117.293236 259.624176,117.695534 
	C250.147247,118.662712 242.791687,110.536110 242.105896,99.343895 
	C241.346939,86.957352 247.773956,76.877831 257.338104,76.778999 
	C261.557434,76.735382 265.800598,78.992287 270.560913,80.356026 
	C270.560913,78.230888 270.560913,75.189972 270.560913,72.149055 
	C270.560913,69.195908 270.560913,66.242767 270.560913,63.093140 
	C274.962097,63.093140 278.728455,63.093140 283.181061,63.093140 
	C283.181061,76.003517 283.181061,88.749832 283.180969,101.995201 
M268.088013,105.512817 
	C271.766510,101.653809 271.578003,96.986931 270.387573,92.390694 
	C269.276001,88.098869 264.537537,86.059097 260.376465,87.615204 
	C255.450684,89.457298 253.239609,96.886948 255.869431,102.759773 
	C257.941559,107.387177 262.159332,108.562416 268.088013,105.512817 
z"/>
<path fill="#1D4675" opacity="1.000000" stroke="none" 
	d="
M210.646484,81.380035 
	C210.677200,87.997498 210.716858,94.158150 210.712860,100.318764 
	C210.710403,104.123962 211.932236,107.021988 216.275024,107.012642 
	C220.393234,107.003784 222.966385,104.642128 223.146500,100.587891 
	C223.441772,93.941628 223.281769,87.275360 223.331451,80.617668 
	C223.337555,79.801201 223.452209,78.985542 223.546051,77.795723 
	C227.524017,77.795723 231.400482,77.795723 235.594650,77.795723 
	C235.594650,90.674240 235.594650,103.402786 235.594650,116.864029 
	C231.155640,115.569946 225.810287,119.838646 222.710739,113.204712 
	C221.873062,113.754448 221.036774,114.257156 220.249466,114.827461 
	C215.356613,118.371796 210.098526,118.942955 204.697128,116.340538 
	C199.521179,113.846733 198.173492,108.978302 198.065369,103.803299 
	C197.885406,95.190361 198.016312,86.570938 198.016312,77.424141 
	C201.581467,77.424141 204.751968,77.124855 207.808243,77.584694 
	C208.894012,77.748055 209.702133,79.756859 210.646484,81.380035 
z"/>
<path fill="#1B4374" opacity="1.000000" stroke="none" 
	d="
M375.922638,106.158989 
	C373.161499,114.532150 364.873077,119.020523 354.739319,117.630264 
	C344.372864,116.208076 337.819305,109.298256 337.146851,99.081375 
	C336.301178,86.232552 345.145020,76.469025 357.566833,76.537987 
	C370.457092,76.609550 378.421173,85.949509 376.744507,100.124985 
	C367.464813,100.493393 358.805664,100.493393 349.870209,100.493393 
	C351.719116,107.078270 356.378418,110.306557 360.808807,107.516159 
	C366.015625,104.236694 370.817780,105.604523 375.922638,106.158989 
M353.030853,93.589996 
	C356.943451,93.589996 360.856049,93.589996 364.920471,93.589996 
	C365.078369,88.992241 362.865326,86.778992 359.307251,86.068092 
	C355.529633,85.313324 352.337524,86.693115 350.747101,90.351021 
	C350.427429,91.086319 351.658752,92.495995 353.030853,93.589996 
z"/>
<path fill="#174070" opacity="1.000000" stroke="none" 
	d="
M406.912872,86.459282 
	C404.311096,87.141212 401.885956,87.414238 399.131683,87.724319 
	C399.131683,91.856773 399.129639,95.825279 399.132111,99.793777 
	C399.136383,106.664551 399.137573,106.664551 405.795410,106.915436 
	C409.220276,116.019920 407.678558,118.169907 398.090149,117.660706 
	C390.369476,117.250687 387.022156,113.894142 386.679443,106.122604 
	C386.547699,103.135445 386.525513,100.142677 386.495514,97.152039 
	C386.465759,94.186569 386.489014,91.220551 386.489014,87.948608 
	C384.421509,87.637611 382.696442,87.378120 380.605988,87.063667 
	C380.605988,84.008835 380.605988,80.981667 380.605988,77.679855 
	C382.298645,77.482735 383.907837,77.295341 386.051392,77.045708 
	C386.251129,73.926117 386.456543,70.717987 386.676575,67.281113 
	C390.817688,67.281113 394.583130,67.281113 398.927979,67.281113 
	C399.095215,70.421463 399.265900,73.626030 399.449707,77.078041 
	C402.038544,77.232994 404.298553,77.368263 407.089508,77.535316 
	C407.089508,80.510498 407.089508,83.280441 406.912872,86.459282 
z"/>
<path fill="#0F3969" opacity="1.000000" stroke="none" 
	d="
M165.955627,116.516579 
	C159.856613,116.516579 153.757614,116.516579 147.296204,116.516579 
	C147.296204,101.476173 147.296204,86.713181 147.714157,71.369736 
	C148.913467,66.898232 151.207993,65.464226 155.168869,65.948372 
	C157.029633,66.175819 158.998566,65.518173 160.918488,65.261627 
	C163.314026,65.193893 165.709564,65.126167 168.540527,65.584625 
	C168.826843,69.331482 168.660797,72.496330 173.013184,73.299103 
	C173.478561,73.384949 173.671555,74.947563 173.646576,75.819977 
	C172.881943,75.641899 172.461624,75.468964 171.856995,74.979050 
	C167.698715,74.354683 163.467072,71.947906 160.059143,76.530884 
	C160.066940,79.618294 160.054825,82.264755 160.066467,85.275253 
	C161.719788,88.661118 163.349319,91.682945 164.557632,94.809982 
	C162.790848,95.610626 160.336273,96.244751 160.293854,97.012192 
	C160.120468,100.149300 160.683777,103.327126 160.977859,106.865662 
	C160.793076,110.551331 159.174942,114.688606 165.200806,114.423058 
	C165.421219,114.413338 165.702637,115.787407 165.955627,116.516579 
z"/>
<path fill="#26B2B7" opacity="1.000000" stroke="none" 
	d="
M60.923817,135.136169 
	C63.309544,135.384933 65.633392,136.089142 67.386772,135.380951 
	C70.718933,134.035095 73.724724,131.881180 77.932869,129.445343 
	C77.932869,137.743378 78.143532,145.245895 77.736977,152.714844 
	C77.664536,154.045624 75.172951,155.468643 73.557739,156.454941 
	C63.616783,162.525131 61.798748,162.411804 52.835499,155.159927 
	C51.958702,154.450546 51.212227,153.019196 51.189167,151.906708 
	C51.041859,144.800156 51.114109,137.689041 51.114109,129.608215 
	C54.698322,131.627121 57.651333,133.290497 60.923817,135.136169 
z"/>
<path fill="#27B2B5" opacity="1.000000" stroke="none" 
	d="
M27.971867,97.451988 
	C12.140183,91.649086 15.490111,78.506241 16.124746,65.624870 
	C19.799301,67.727249 23.071415,69.879921 26.594481,71.480072 
	C28.049282,72.140846 30.310703,72.186768 31.737635,71.516617 
	C35.165970,69.906509 38.317753,67.707558 42.687855,65.081001 
	C42.687855,73.444206 42.943287,80.971375 42.462803,88.451263 
	C42.371552,89.871788 39.431606,91.201462 37.687691,92.401009 
	C35.360657,94.001671 32.917927,95.434128 29.934601,97.164276 
	C28.886831,97.410469 28.429350,97.431229 27.971867,97.451988 
z"/>
<path fill="#28B0B4" opacity="1.000000" stroke="none" 
	d="
M98.962082,97.632904 
	C86.848366,93.228577 84.998894,83.772675 86.531746,72.570457 
	C86.797043,70.631668 86.569321,68.625427 86.569321,65.570000 
	C89.767525,67.328964 92.462585,68.450012 94.731285,70.142563 
	C98.243935,72.763153 101.304802,73.019127 104.855324,70.139198 
	C107.098701,68.319534 109.896286,67.183136 113.214203,65.305023 
	C113.214203,73.375534 113.324425,80.471558 113.102715,87.557198 
	C113.066910,88.701447 111.761948,90.088799 110.683792,90.861938 
	C107.989128,92.794235 105.087608,94.438072 101.710495,96.567642 
	C100.421951,97.169388 99.692017,97.401146 98.962082,97.632904 
z"/>
<path fill="#1E4D7C" opacity="1.000000" stroke="none" 
	d="
M662.589355,123.981934 
	C662.589355,123.981926 662.353760,123.760902 661.766602,123.816132 
	C656.435974,124.338249 651.692444,124.805138 646.948914,125.272018 
	C646.948914,125.272011 646.967590,125.128059 647.031006,124.711227 
	C647.784729,123.382614 648.475037,122.470825 649.165405,121.559052 
	C660.070129,121.856613 662.501038,119.201317 661.128113,109.680191 
	C656.879822,110.636971 652.582642,112.318283 648.292542,112.300285 
	C645.765381,112.289696 642.666565,110.091362 640.838623,107.993553 
	C635.479797,101.843681 636.324768,89.722328 642.028809,84.044380 
	C647.055298,79.041031 653.700623,79.094810 659.903809,83.835510 
	C661.922180,82.622452 663.811401,81.487015 666.424255,79.916634 
	C666.424255,93.337578 666.424255,105.389938 665.902222,117.864487 
	C665.044983,119.199318 664.709900,120.111961 664.374756,121.024612 
	C664.108887,121.298012 663.843018,121.571411 663.383667,122.319870 
	C662.989990,123.190605 662.789673,123.586273 662.589355,123.981934 
M659.431946,104.815765 
	C659.942200,100.344978 661.242920,95.785011 660.751221,91.427269 
	C660.206848,86.602303 654.501831,83.944244 649.941528,85.448975 
	C645.358276,86.961304 643.662231,90.675217 643.263489,95.034691 
	C642.839355,99.670853 643.489502,104.208771 647.942871,106.809822 
	C651.763794,109.041443 655.594910,108.520500 659.431946,104.815765 
z"/>
<path fill="#2A5380" opacity="1.000000" stroke="none" 
	d="
M753.892700,98.892883 
	C746.235901,99.092155 738.947205,99.092155 731.369690,99.092155 
	C730.819519,103.415283 732.489990,106.302902 735.729797,108.075012 
	C739.594299,110.188835 743.305542,109.540543 746.894958,106.833572 
	C748.468445,105.646942 750.676819,105.302246 753.667725,104.169785 
	C750.684631,113.525436 740.843018,117.298141 733.248535,113.388344 
	C726.391785,109.858383 724.330933,103.890182 724.863953,96.510201 
	C725.355713,89.700363 727.717957,84.104904 734.252502,81.273438 
	C739.327820,79.074226 744.535828,79.493919 748.842712,83.115669 
	C753.604675,87.120155 755.602356,92.406349 753.892700,98.892883 
M747.065186,88.556374 
	C744.408875,85.064827 740.912537,84.007568 736.894531,85.559448 
	C732.913940,87.096893 731.174194,90.301430 731.122864,94.694061 
	C737.073853,94.694061 742.819214,94.694061 749.209534,94.694061 
	C748.543274,92.573624 748.015137,90.892990 747.065186,88.556374 
z"/>
<path fill="#25527F" opacity="1.000000" stroke="none" 
	d="
M498.843536,113.789490 
	C491.617706,114.879814 485.821655,113.247665 482.198944,106.907967 
	C478.585388,100.584290 479.247833,90.724846 483.401520,85.586563 
	C487.515381,80.497627 495.043304,78.788574 501.079498,81.573151 
	C507.135773,84.366997 510.342529,91.115891 509.120514,99.172897 
	C501.642639,99.172897 494.066101,99.172897 486.136078,99.172897 
	C485.925476,103.528084 487.386169,106.497490 490.795715,108.154785 
	C494.728638,110.066498 498.846313,109.834694 501.835541,106.511215 
	C504.108704,103.983917 505.897400,104.490425 508.494446,105.965889 
	C506.689362,110.354820 503.393951,112.541702 498.843536,113.789490 
M493.560303,94.891846 
	C496.914062,94.891846 500.267822,94.891846 503.730652,94.891846 
	C502.428467,87.468430 499.366516,84.534142 494.138336,84.961388 
	C489.384979,85.349823 486.404358,88.943405 486.286499,94.889076 
	C488.389862,94.889076 490.500763,94.889076 493.560303,94.891846 
z"/>
<path fill="#1F4776" opacity="1.000000" stroke="none" 
	d="
M164.978867,94.704765 
	C163.349319,91.682945 161.719788,88.661118 160.503540,85.442307 
	C163.904556,85.310135 166.948608,85.750153 169.860886,85.312782 
	C171.931000,85.001900 174.972733,83.918022 175.500458,82.437569 
	C176.140854,80.641068 174.592346,78.064293 173.990906,75.825111 
	C173.671555,74.947563 173.478561,73.384949 173.013184,73.299103 
	C168.660797,72.496330 168.826843,69.331482 168.974915,65.700363 
	C172.765106,65.461769 176.721405,64.996681 180.315781,65.928192 
	C190.030930,68.445953 192.934799,79.343643 186.338913,86.928123 
	C185.435333,87.967133 185.311020,89.683838 184.713058,91.554626 
	C183.685684,93.256310 182.771194,94.490158 181.643600,96.011520 
	C180.283325,95.276558 178.941864,94.249420 177.437698,93.873795 
	C176.744217,93.700623 175.732513,94.801796 174.417450,95.309937 
	C170.972824,95.098061 167.975845,94.901413 164.978867,94.704765 
z"/>
<path fill="#164A7D" opacity="1.000000" stroke="none" 
	d="
M573.182800,95.228989 
	C573.182800,99.465164 573.182800,103.701347 573.182800,108.365875 
	C579.849915,108.365875 585.912659,108.364281 591.975403,108.366798 
	C593.926941,108.367615 596.218140,107.902252 595.607666,111.648560 
	C595.096130,112.393860 594.984558,112.682854 595.010986,113.025146 
	C586.102905,113.025146 577.194885,113.025146 567.818665,113.025146 
	C567.818665,99.283058 567.818665,85.600822 568.134644,71.358002 
	C568.731445,70.613510 568.914734,70.359299 569.000427,70.034775 
	C577.548767,70.070320 586.097168,70.105873 594.780945,70.903351 
	C594.993408,72.165230 595.070496,72.665184 595.147522,73.165131 
	C593.750793,73.669868 592.366821,74.564178 590.955078,74.610329 
	C585.521179,74.788002 580.078430,74.694244 573.927368,74.935852 
	C573.203308,75.515236 573.190857,75.860458 573.178345,76.205688 
	C573.193665,79.753265 573.208984,83.300842 573.239746,87.698151 
	C574.934753,88.991707 576.600220,89.744476 578.296448,89.821587 
	C583.441833,90.055473 588.599060,90.027893 593.751709,90.102173 
	C593.789124,90.513268 593.826538,90.924355 593.638306,91.790878 
	C593.218445,92.680786 593.024353,93.115257 592.830261,93.549728 
	C587.844299,93.624298 582.858337,93.698868 577.146179,93.491501 
	C575.340942,93.882706 574.261841,94.555847 573.182800,95.228989 
z"/>
<path fill="#23537F" opacity="1.000000" stroke="none" 
	d="
M630.109253,95.121414 
	C630.108093,101.250252 630.108093,106.897476 630.108093,112.908661 
	C628.317505,112.908661 626.778137,112.908661 624.745789,112.908661 
	C624.745789,106.634850 624.823425,100.503860 624.724243,94.375740 
	C624.622437,88.085625 622.291565,85.316910 617.308533,85.240868 
	C612.146790,85.162094 608.895142,88.726257 608.815063,94.750557 
	C608.735962,100.701454 608.797913,106.654228 608.797913,112.937859 
	C606.760620,112.937859 605.209167,112.937859 603.377686,112.937859 
	C603.377686,102.343391 603.377686,91.945877 603.377686,79.986282 
	C606.059448,81.386314 607.986450,82.392311 610.247070,83.572479 
	C611.600891,82.899063 613.929321,81.103745 616.518127,80.569023 
	C625.310364,78.753006 629.911743,83.677864 630.109253,95.121414 
z"/>
<path fill="#24527D" opacity="1.000000" stroke="none" 
	d="
M690.958984,85.344139 
	C691.655334,83.521759 692.351013,82.151840 693.046753,80.781921 
	C694.457764,81.579018 695.868774,82.376114 697.994568,83.577026 
	C698.141785,83.461479 699.078857,82.625496 700.111450,81.931839 
	C706.954102,77.335388 716.495056,81.153946 717.234192,89.325104 
	C717.933289,97.053673 717.384338,104.895126 717.384338,113.046539 
	C715.893188,113.046539 714.343201,113.046539 712.175354,113.046539 
	C712.175354,106.688141 712.229126,100.422218 712.160095,94.157654 
	C712.091980,87.978859 709.715393,85.250854 704.607361,85.264519 
	C699.868958,85.277191 696.472168,88.672455 696.320557,93.996643 
	C696.145996,100.127701 696.280029,106.267540 696.280029,112.788544 
	C694.464844,112.788544 692.960144,112.788544 690.958313,112.788544 
	C690.958313,103.689613 690.958313,94.743111 690.958984,85.344139 
z"/>
<path fill="#1F4776" opacity="1.000000" stroke="none" 
	d="
M166.401672,116.664711 
	C165.702637,115.787407 165.421219,114.413338 165.200806,114.423058 
	C159.174942,114.688606 160.793076,110.551331 161.433838,106.754288 
	C164.359024,106.256584 166.831070,106.203354 169.301453,106.245781 
	C172.637726,106.303078 175.992950,106.488274 178.367371,102.994583 
	C180.075668,102.051956 181.409393,101.114502 182.814102,100.127151 
	C183.632004,100.983017 184.382935,101.768814 184.972855,102.386108 
	C185.321106,98.861481 185.649246,95.540375 185.977386,92.219269 
	C194.045975,98.239075 193.214478,110.866020 183.896774,114.470055 
	C178.690613,116.483772 172.561157,116.110504 166.401672,116.664711 
z"/>
<path fill="#0F457A" opacity="1.000000" stroke="none" 
	d="
M432.968201,74.932533 
	C432.925446,78.994507 432.882690,83.056488 432.615936,87.856842 
	C433.748932,89.073158 435.094177,89.920212 436.465027,89.963997 
	C441.880157,90.136971 447.303375,90.057999 452.723572,90.072479 
	C452.780121,90.496780 452.836670,90.921082 452.631348,91.801926 
	C452.213165,92.713356 452.056915,93.168243 451.900635,93.623138 
	C445.785339,93.623138 439.670013,93.623138 432.894928,93.623138 
	C432.894928,99.323860 432.713074,104.265030 432.959595,109.184738 
	C433.120880,112.403099 431.886810,113.435280 428.488770,112.554108 
	C427.775238,111.789452 427.483002,111.386253 427.190735,110.983047 
	C427.172119,97.985268 427.153473,84.987488 427.655151,71.502975 
	C435.316925,70.989082 442.459412,70.889633 449.598999,70.992455 
	C451.125244,71.014442 452.640869,71.770401 454.161407,72.188232 
	C454.180359,72.611366 454.199341,73.034485 453.672729,73.551895 
	C447.056396,73.475174 440.985931,73.248657 434.914459,73.214432 
	C434.268951,73.210785 433.617126,74.332756 432.968201,74.932533 
z"/>
<path fill="#224F7D" opacity="1.000000" stroke="none" 
	d="
M520.891357,99.070137 
	C520.354187,103.397675 522.156555,106.612373 525.998169,108.356140 
	C529.959534,110.154251 533.629150,109.308472 537.120605,106.540512 
	C538.486755,105.457466 540.700989,105.444122 543.555237,104.662567 
	C540.237732,112.045166 534.717773,114.921051 527.856812,114.076942 
	C521.265808,113.266045 516.380249,108.662254 515.000244,101.962044 
	C513.163086,93.041763 516.236877,85.845451 524.363281,81.852203 
	C525.370422,83.050262 525.688293,84.051361 525.698120,85.201782 
	C523.632019,88.202827 521.874084,91.054550 520.116150,93.906273 
	C520.507874,94.334534 520.899597,94.762794 521.291321,95.191055 
	C526.190674,95.191055 531.090088,95.191055 535.973511,95.595306 
	C534.559143,96.665161 533.218262,97.689774 531.750793,97.925255 
	C528.162170,98.501122 524.514954,98.712219 520.891357,99.070137 
z"/>
<path fill="#1C4C7A" opacity="1.000000" stroke="none" 
	d="
M461.266296,81.720146 
	C463.288086,81.799934 465.038483,82.224922 467.845734,82.906502 
	C469.612915,82.180222 472.801056,80.869957 476.683838,79.274208 
	C476.683838,81.923584 476.683838,83.334984 476.683838,84.727661 
	C466.837616,87.159302 466.168793,88.008133 466.127655,98.195595 
	C466.108337,102.974388 466.124359,107.753326 466.124359,112.802368 
	C464.280457,112.802368 462.882202,112.802368 460.994873,112.802368 
	C460.994873,102.525818 460.994873,92.295578 461.266296,81.720146 
z"/>
<path fill="#2B5787" opacity="1.000000" stroke="none" 
	d="
M526.006165,85.052460 
	C525.688293,84.051361 525.370422,83.050262 524.700317,81.828743 
	C535.627930,76.895187 545.135681,85.059517 544.012695,99.149551 
	C536.664246,99.149551 529.250854,99.149551 521.364380,99.109848 
	C524.514954,98.712219 528.162170,98.501122 531.750793,97.925255 
	C533.218262,97.689774 534.559143,96.665161 536.362366,95.461060 
	C537.152466,93.619873 538.122620,92.159531 537.821289,91.041977 
	C536.548523,86.320824 533.407471,84.855881 526.006165,85.052460 
z"/>
<path fill="#315C83" opacity="1.000000" stroke="none" 
	d="
M681.830688,87.177994 
	C681.831238,95.943947 681.831238,104.234894 681.831238,112.843796 
	C679.846252,112.843796 678.296692,112.843796 676.468811,112.843796 
	C676.468811,102.234215 676.468811,91.834557 676.468811,81.204353 
	C678.218872,81.204353 679.654541,81.204353 681.581177,81.204353 
	C681.669128,83.145699 681.749634,84.924347 681.830688,87.177994 
z"/>
<path fill="#E1EAF1" opacity="1.000000" stroke="none" 
	d="
M375.955017,105.786545 
	C370.817780,105.604523 366.015625,104.236694 360.808807,107.516159 
	C356.378418,110.306557 351.719116,107.078270 349.870209,100.493393 
	C358.805664,100.493393 367.464813,100.493393 376.596252,100.506271 
	C376.708130,102.150795 376.347778,103.782440 375.955017,105.786545 
z"/>
<path fill="#E1EAF1" opacity="1.000000" stroke="none" 
	d="
M302.998962,115.795876 
	C308.383911,115.740417 313.715271,115.636734 317.883881,109.805679 
	C318.790375,114.829712 318.850372,118.642876 315.166901,121.406471 
	C311.511871,124.148727 305.934723,123.282051 301.362122,119.233109 
	C303.690948,119.162117 304.310455,118.235847 302.998962,115.795876 
z"/>
<path fill="#174070" opacity="1.000000" stroke="none" 
	d="
M19.981068,101.230515 
	C15.196656,110.270081 15.669331,119.121552 19.949781,128.360764 
	C16.476288,127.703278 15.249844,125.536736 15.423462,121.750793 
	C15.763283,114.340668 15.523273,106.903946 15.523273,98.593475 
	C17.193869,99.528595 18.497324,100.258202 19.981068,101.230515 
z"/>
<path fill="#0F3969" opacity="1.000000" stroke="none" 
	d="
M185.866196,92.046028 
	C185.649246,95.540375 185.321106,98.861481 184.972855,102.386108 
	C184.382935,101.768814 183.632004,100.983017 182.814102,100.127151 
	C181.409393,101.114502 180.075668,102.051956 178.364624,102.605637 
	C176.946579,99.922958 175.905838,97.624054 174.865097,95.325150 
	C175.732513,94.801796 176.744217,93.700623 177.437698,93.873795 
	C178.941864,94.249420 180.283325,95.276558 181.643600,96.011520 
	C182.771194,94.490158 183.685684,93.256310 184.973297,91.922409 
	C185.346420,91.822342 185.755005,91.872787 185.866196,92.046028 
z"/>
<path fill="#406C92" opacity="1.000000" stroke="none" 
	d="
M454.304749,71.884949 
	C452.640869,71.770401 451.125244,71.014442 449.598999,70.992455 
	C442.459412,70.889633 435.316925,70.989082 427.725525,71.043793 
	C427.899109,70.515144 428.514587,69.485558 429.147308,69.474869 
	C436.777679,69.345985 444.411957,69.300339 452.041016,69.448235 
	C452.856842,69.464050 453.646362,70.837837 454.304749,71.884949 
z"/>
<path fill="#23537F" opacity="1.000000" stroke="none" 
	d="
M648.911499,121.343369 
	C648.475037,122.470825 647.784729,123.382614 647.038574,124.639046 
	C645.449768,124.349503 643.916870,123.715317 642.085083,123.036926 
	C640.807739,121.743370 639.829285,120.494003 638.703003,119.055954 
	C641.269348,116.859428 643.248901,116.082741 645.468628,118.954437 
	C646.216797,119.922264 647.577087,120.416832 648.911499,121.343369 
z"/>
<path fill="#406C92" opacity="1.000000" stroke="none" 
	d="
M452.703247,89.704269 
	C447.303375,90.057999 441.880157,90.136971 436.465027,89.963997 
	C435.094177,89.920212 433.748932,89.073158 432.594177,88.323502 
	C437.509064,88.286903 442.223328,88.494598 446.933533,88.770424 
	C448.854462,88.882904 450.766724,89.143082 452.703247,89.704269 
z"/>
<path fill="#406C92" opacity="1.000000" stroke="none" 
	d="
M433.435913,74.873276 
	C433.617126,74.332756 434.268951,73.210785 434.914459,73.214432 
	C440.985931,73.248657 447.056396,73.475174 453.496338,73.819321 
	C447.211578,74.266319 440.557617,74.540169 433.435913,74.873276 
z"/>
<path fill="#5E83A1" opacity="1.000000" stroke="none" 
	d="
M593.770264,89.708191 
	C588.599060,90.027893 583.441833,90.055473 578.296448,89.821587 
	C576.600220,89.744476 574.934753,88.991707 573.221924,88.138115 
	C578.377686,87.952904 583.569946,88.121857 588.753662,88.433815 
	C590.443542,88.535522 592.111023,89.010155 593.770264,89.708191 
z"/>
<path fill="#1F4776" opacity="1.000000" stroke="none" 
	d="
M160.564667,65.094498 
	C158.998566,65.518173 157.029633,66.175819 155.168869,65.948372 
	C151.207993,65.464226 148.913467,66.898232 147.809174,70.912827 
	C147.393005,69.237869 147.299774,67.439369 147.169571,64.927376 
	C151.742676,64.927376 155.976776,64.927376 160.564667,65.094498 
z"/>
<path fill="#23537F" opacity="1.000000" stroke="none" 
	d="
M680.655396,74.945862 
	C678.752319,74.336861 677.064087,73.719292 675.845398,72.593384 
	C675.519775,72.292534 676.340698,69.834099 677.151978,69.445808 
	C678.221497,68.933907 680.851135,69.196381 680.972656,69.634895 
	C681.412720,71.223732 681.084534,73.025345 680.655396,74.945862 
z"/>
<path fill="#174070" opacity="1.000000" stroke="none" 
	d="
M39.378326,130.053696 
	C38.912441,127.348763 39.011532,124.869682 43.244202,127.119263 
	C42.324673,128.187164 41.022327,129.097290 39.378326,130.053696 
z"/>
<path fill="#EFF6F8" opacity="1.000000" stroke="none" 
	d="
M100.011780,105.509995 
	C98.426003,105.176086 96.730949,104.434372 94.858627,103.411163 
	C96.421738,103.787178 98.162117,104.444687 100.011780,105.509995 
z"/>
<path fill="#EFF6F8" opacity="1.000000" stroke="none" 
	d="
M99.048767,97.925049 
	C99.692017,97.401146 100.421951,97.169388 101.523125,96.843208 
	C101.721657,97.653458 101.548965,98.558121 101.376274,99.462791 
	C100.629333,99.047592 99.882393,98.632401 99.048767,97.925049 
z"/>
<path fill="#5E83A1" opacity="1.000000" stroke="none" 
	d="
M573.479736,95.033691 
	C574.261841,94.555847 575.340942,93.882706 576.678772,93.439163 
	C575.883911,94.058632 574.830322,94.448517 573.479736,95.033691 
z"/>
<path fill="#EFF8F7" opacity="1.000000" stroke="none" 
	d="
M664.676941,120.958191 
	C664.709900,120.111961 665.044983,119.199318 665.698059,118.241333 
	C665.670349,119.094589 665.324768,119.993179 664.676941,120.958191 
z"/>
<path fill="#EFF6F8" opacity="1.000000" stroke="none" 
	d="
M28.031275,97.697899 
	C28.429350,97.431229 28.886831,97.410469 29.686607,97.422783 
	C29.382826,97.618507 28.736755,97.781158 28.031275,97.697899 
z"/>
<path fill="#406C92" opacity="1.000000" stroke="none" 
	d="
M427.101746,111.284348 
	C427.483002,111.386253 427.775238,111.789452 428.075653,112.448555 
	C427.726807,112.331520 427.369812,111.958588 427.101746,111.284348 
z"/>
<path fill="#5E83A1" opacity="1.000000" stroke="none" 
	d="
M593.138611,93.590485 
	C593.024353,93.115257 593.218445,92.680786 593.606689,92.099854 
	C593.682861,92.512665 593.564880,93.071953 593.138611,93.590485 
z"/>
<path fill="#406C92" opacity="1.000000" stroke="none" 
	d="
M452.209259,93.658432 
	C452.056915,93.168243 452.213165,92.713356 452.575500,92.121284 
	C452.693634,92.553978 452.605743,93.123848 452.209259,93.658432 
z"/>
<path fill="#5E83A1" opacity="1.000000" stroke="none" 
	d="
M595.287842,72.959450 
	C595.070496,72.665184 594.993408,72.165230 594.993652,71.290596 
	C595.190002,71.528526 595.309082,72.141151 595.287842,72.959450 
z"/>
<path fill="#5E83A1" opacity="1.000000" stroke="none" 
	d="
M573.340332,76.019089 
	C573.190857,75.860458 573.203308,75.515236 573.445801,75.028000 
	C573.763123,75.228119 573.705200,75.543617 573.340332,76.019089 
z"/>
<path fill="#5E83A1" opacity="1.000000" stroke="none" 
	d="
M595.297974,113.001816 
	C594.984558,112.682854 595.096130,112.393860 595.557129,112.047905 
	C595.707336,112.284592 595.646179,112.631538 595.297974,113.001816 
z"/>
<path fill="#EFF8F7" opacity="1.000000" stroke="none" 
	d="
M662.955688,123.884720 
	C662.789673,123.586273 662.989990,123.190605 663.463745,122.604103 
	C663.798523,122.590630 663.859802,122.767998 663.971924,123.221771 
	C663.789246,123.594612 663.555664,123.691048 662.955688,123.884720 
z"/>
<path fill="#315C83" opacity="1.000000" stroke="none" 
	d="
M568.700928,69.992249 
	C568.914734,70.359299 568.731445,70.613510 568.233521,70.898254 
	C568.144714,70.649307 568.273071,70.299507 568.700928,69.992249 
z"/>
<path fill="#30B2B5" opacity="1.000000" stroke="none" 
	d="
M646.971558,125.671082 
	C651.692444,124.805138 656.435974,124.338249 661.610840,123.858665 
	C661.334839,126.288795 661.333618,129.890823 657.501831,128.869827 
	C654.005981,127.938332 649.007019,132.336853 646.971558,125.671082 
z"/>
<path fill="#F3F5F7" opacity="1.000000" stroke="none" 
	d="
M318.786377,95.238846 
	C318.519501,97.437149 318.748688,99.581482 317.826141,100.948631 
	C316.523834,102.878578 314.621368,104.903145 312.525696,105.691124 
	C308.518555,107.197815 304.299927,104.261192 303.083984,99.825142 
	C301.498474,94.040474 303.707245,88.702545 308.262054,87.311516 
	C312.661194,85.968018 316.819061,88.231003 318.418884,92.877472 
	C318.632385,93.497559 318.656525,94.182854 318.786377,95.238846 
z"/>
<path fill="#F3F5F7" opacity="1.000000" stroke="none" 
	d="
M267.805664,105.759918 
	C262.159332,108.562416 257.941559,107.387177 255.869431,102.759773 
	C253.239609,96.886948 255.450684,89.457298 260.376465,87.615204 
	C264.537537,86.059097 269.276001,88.098869 270.387573,92.390694 
	C271.578003,96.986931 271.766510,101.653809 267.805664,105.759918 
z"/>
<path fill="#D6E1EA" opacity="1.000000" stroke="none" 
	d="
M352.602905,93.592377 
	C351.658752,92.495995 350.427429,91.086319 350.747101,90.351021 
	C352.337524,86.693115 355.529633,85.313324 359.307251,86.068092 
	C362.865326,86.778992 365.078369,88.992241 364.920471,93.589996 
	C360.856049,93.589996 356.943451,93.589996 352.602905,93.592377 
z"/>
<path fill="#ECF2F5" opacity="1.000000" stroke="none" 
	d="
M174.417450,95.309929 
	C175.905838,97.624054 176.946579,99.922958 177.990051,102.610809 
	C175.992950,106.488274 172.637726,106.303078 169.301453,106.245781 
	C166.831070,106.203354 164.359024,106.256584 161.431763,106.378578 
	C160.683777,103.327126 160.120468,100.149300 160.293854,97.012192 
	C160.336273,96.244751 162.790848,95.610626 164.557632,94.809982 
	C167.975845,94.901413 170.972824,95.098061 174.417450,95.309929 
z"/>
<path fill="#ECF2F5" opacity="1.000000" stroke="none" 
	d="
M173.646576,75.819977 
	C174.592346,78.064293 176.140854,80.641068 175.500458,82.437569 
	C174.972733,83.918022 171.931000,85.001900 169.860886,85.312782 
	C166.948608,85.750153 163.904556,85.310135 160.479767,85.078262 
	C160.054825,82.264755 160.066940,79.618294 160.497391,76.376595 
	C164.624252,75.619583 168.332779,75.457809 172.041306,75.296036 
	C172.461624,75.468964 172.881943,75.641899 173.646576,75.819977 
z"/>
<path fill="#1F4776" opacity="1.000000" stroke="none" 
	d="
M171.856995,74.979050 
	C168.332779,75.457809 164.624252,75.619583 160.477478,75.935646 
	C163.467072,71.947906 167.698715,74.354683 171.856995,74.979050 
z"/>
<path fill="#F4F7F8" opacity="1.000000" stroke="none" 
	d="
M659.170227,105.105072 
	C655.594910,108.520500 651.763794,109.041443 647.942871,106.809822 
	C643.489502,104.208771 642.839355,99.670853 643.263489,95.034691 
	C643.662231,90.675217 645.358276,86.961304 649.941528,85.448975 
	C654.501831,83.944244 660.206848,86.602303 660.751221,91.427269 
	C661.242920,95.785011 659.942200,100.344978 659.170227,105.105072 
z"/>
<path fill="#EBF0F4" opacity="1.000000" stroke="none" 
	d="
M747.276123,88.884369 
	C748.015137,90.892990 748.543274,92.573624 749.209534,94.694061 
	C742.819214,94.694061 737.073853,94.694061 731.122864,94.694061 
	C731.174194,90.301430 732.913940,87.096893 736.894531,85.559448 
	C740.912537,84.007568 744.408875,85.064827 747.276123,88.884369 
z"/>
<path fill="#EBF0F4" opacity="1.000000" stroke="none" 
	d="
M493.085968,94.890457 
	C490.500763,94.889076 488.389862,94.889076 486.286499,94.889076 
	C486.404358,88.943405 489.384979,85.349823 494.138336,84.961388 
	C499.366516,84.534142 502.428467,87.468430 503.730652,94.891846 
	C500.267822,94.891846 496.914062,94.891846 493.085968,94.890457 
z"/>
<path fill="#EBF0F4" opacity="1.000000" stroke="none" 
	d="
M525.698120,85.201790 
	C533.407471,84.855881 536.548523,86.320824 537.821289,91.041977 
	C538.122620,92.159531 537.152466,93.619873 536.378296,95.056801 
	C531.090088,95.191055 526.190674,95.191055 521.291321,95.191055 
	C520.899597,94.762794 520.507874,94.334534 520.116150,93.906273 
	C521.874084,91.054550 523.632019,88.202827 525.698120,85.201790 
z"/>
</svg>